Newsreader-DisplayExtraBold.ufo
<glyph name="parenleft" format="2">
  <advance width="583"/>
  <unicode hex="0028"/>
  <outline>
    <contour>
      <point x="304.0" y="638.0" type="curve" smooth="yes"/>
      <point x="304.0" y="950.0"/>
      <point x="352.0" y="1143.0"/>
      <point x="546.0" y="1474.0" type="curve"/>
      <point x="512.0" y="1494.0" type="line"/>
      <point x="120.0" y="1035.0"/>
      <point x="56.0" y="884.0"/>
      <point x="56.0" y="638.0" type="curve" smooth="yes"/>
      <point x="56.0" y="392.0"/>
      <point x="120.0" y="241.0"/>
      <point x="512.0" y="-218.0" type="curve"/>
      <point x="546.0" y="-198.0" type="line"/>
      <point x="352.0" y="133.0"/>
      <point x="304.0" y="327.0"/>
    </contour>
  </outline>
</glyph>
<glyph name="hyphen" format="2">
  <advance width="672"/>
  <unicode hex="002D"/>
  <outline>
    <contour>
      <point x="104.0" y="610.0" type="line"/>
      <point x="104.0" y="434.0" type="line"/>
      <point x="568.0" y="434.0" type="line"/>
      <point x="568.0" y="610.0" type="line"/>
    </contour>
  </outline>
</glyph>
<glyph name="zero" format="2">
  <advance width="1400"/>
  <unicode hex="0030"/>
  <outline>
    <contour>
      <point x="701.0" y="53.0" type="curve" smooth="yes"/>
      <point x="600.0" y="53.0"/>
      <point x="547.0" y="222.0"/>
      <point x="547.0" y="767.0" type="curve" smooth="yes"/>
      <point x="547.0" y="1227.0"/>
      <point x="602.0" y="1377.0"/>
      <point x="700.0" y="1377.0" type="curve" smooth="yes"/>
      <point x="801.0" y="1377.0"/>
      <point x="854.0" y="1208.0"/>
      <point x="854.0" y="663.0" type="curve" smooth="yes"/>
      <point x="854.0" y="203.0"/>
      <point x="799.0" y="53.0"/>
    </contour>
    <contour>
      <point x="716.0" y="1460.0" type="curve" smooth="yes"/>
      <point x="341.0" y="1460.0"/>
      <point x="67.0" y="1159.0"/>
      <point x="67.0" y="716.0" type="curve" smooth="yes"/>
      <point x="67.0" y="272.0"/>
      <point x="308.0" y="-30.0"/>
      <point x="685.0" y="-30.0" type="curve" smooth="yes"/>
      <point x="1060.0" y="-30.0"/>
      <point x="1334.0" y="271.0"/>
      <point x="1334.0" y="714.0" type="curve" smooth="yes"/>
      <point x="1334.0" y="1158.0"/>
      <point x="1093.0" y="1460.0"/>
    </contour>
  </outline>
</glyph>
<glyph name="semicolon" format="2">
  <advance width="608"/>
  <unicode hex="003B"/>
  <outline>
    <contour>
      <point x="93.0" y="-309.0" type="curve"/>
      <point x="129.0" y="-348.0" type="line"/>
      <point x="418.0" y="-189.0"/>
      <point x="516.0" y="-3.0"/>
      <point x="516.0" y="167.0" type="curve" smooth="yes"/>
      <point x="516.0" y="305.0"/>
      <point x="427.0" y="396.0"/>
      <point x="300.0" y="396.0" type="curve" smooth="yes"/>
      <point x="173.0" y="396.0"/>
      <point x="84.0" y="315.0"/>
      <point x="84.0" y="196.0" type="curve" smooth="yes"/>
      <point x="84.0" y="163.0"/>
      <point x="271.0" y="90.0"/>
      <point x="271.0" y="-51.0" type="curve" smooth="yes"/>
      <point x="271.0" y="-157.0"/>
      <point x="216.0" y="-234.0"/>
    </contour>
    <contour>
      <point x="300.0" y="1048.0" type="curve" smooth="yes"/>
      <point x="173.0" y="1048.0"/>
      <point x="84.0" y="957.0"/>
      <point x="84.0" y="838.0" type="curve" smooth="yes"/>
      <point x="84.0" y="719.0"/>
      <point x="173.0" y="628.0"/>
      <point x="300.0" y="628.0" type="curve" smooth="yes"/>
      <point x="427.0" y="628.0"/>
      <point x="516.0" y="719.0"/>
      <point x="516.0" y="838.0" type="curve" smooth="yes"/>
      <point x="516.0" y="957.0"/>
      <point x="427.0" y="1048.0"/>
    </contour>
  </outline>
</glyph>
<glyph name="less" format="2">
  <advance width="1150"/>
  <unicode hex="003C"/>
  <outline>
    <contour>
      <point x="145.0" y="468.0" type="line"/>
      <point x="981.0" y="115.0" type="line"/>
      <point x="981.0" y="217.0" type="line"/>
      <point x="239.0" y="525.0" type="line"/>
      <point x="239.0" y="505.0" type="line"/>
      <point x="981.0" y="807.0" type="line"/>
      <point x="981.0" y="909.0" type="line"/>
      <point x="145.0" y="556.0" type="line"/>
    </contour>
  </outline>
</glyph>
<glyph name="B" format="2">
  <advance width="1580"/>
  <unicode hex="0042"/>
  <anchor x="763.0" y="1430.0" name="UCtop"/>
  <anchor x="763.0" y="0" name="bottom"/>
  <outline>
    <contour>
      <point x="356.0" y="1330.0" type="line"/>
      <point x="736.0" y="1330.0" type="line" smooth="yes"/>
      <point x="926.0" y="1330.0"/>
      <point x="1001.0" y="1230.0"/>
      <point x="1001.0" y="1077.0" type="curve" smooth="yes"/>
      <point x="1001.0" y="904.0"/>
      <point x="926.0" y="816.0"/>
      <point x="812.0" y="816.0" type="curve" smooth="yes"/>
      <point x="356.0" y="816.0" type="line"/>
      <point x="366.0" y="716.0" type="line"/>
      <point x="799.0" y="716.0" type="line" smooth="yes"/>
      <point x="998.0" y="716.0"/>
      <point x="1086.0" y="590.0"/>
      <point x="1086.0" y="413.0" type="curve" smooth="yes"/>
      <point x="1086.0" y="195.0"/>
      <point x="968.0" y="100.0"/>
      <point x="772.0" y="100.0" type="curve" smooth="yes"/>
      <point x="367.0" y="100.0" type="line"/>
      <point x="492.0" y="0.0" type="line"/>
      <point x="913.0" y="0.0" type="line" smooth="yes"/>
      <point x="1343.0" y="0.0"/>
      <point x="1526.0" y="155.0"/>
      <point x="1526.0" y="390.0" type="curve" smooth="yes"/>
      <point x="1526.0" y="633.0"/>
      <point x="1354.0" y="762.0"/>
      <point x="1050.0" y="783.0" type="curve"/>
      <point x="1028.0" y="767.0" type="line"/>
      <point x="1266.0" y="789.0"/>
      <point x="1437.0" y="908.0"/>
      <point x="1437.0" y="1104.0" type="curve" smooth="yes"/>
      <point x="1437.0" y="1293.0"/>
      <point x="1297.0" y="1430.0"/>
      <point x="954.0" y="1430.0" type="curve" smooth="yes"/>
      <point x="491.0" y="1430.0" type="line"/>
    </contour>
    <contour>
      <point x="41.0" y="0.0" type="line"/>
      <point x="702.0" y="0.0" type="line"/>
      <point x="702.0" y="1430.0" type="line"/>
      <point x="41.0" y="1430.0" type="line"/>
      <point x="41.0" y="1391.0" type="line"/>
      <point x="194.0" y="1337.0" type="line"/>
      <point x="194.0" y="94.0" type="line"/>
      <point x="41.0" y="38.0" type="line"/>
    </contour>
  </outline>
</glyph>
<glyph name="C" format="2">
  <advance width="1478"/>
  <unicode hex="0043"/>
  <anchor x="830.0" y="1430.0" name="UCtop"/>
  <anchor x="830.0" y="0" name="bottom"/>
  <anchor x="1352.0" y="0" name="right"/>
  <outline>
    <contour>
      <point x="1007.0" y="53.0" type="curve" smooth="yes"/>
      <point x="772.0" y="53.0"/>
      <point x="582.0" y="392.0"/>
      <point x="582.0" y="807.0" type="curve" smooth="yes"/>
      <point x="582.0" y="1228.0"/>
      <point x="709.0" y="1373.0"/>
      <point x="907.0" y="1373.0" type="curve" smooth="yes"/>
      <point x="1005.3028169014084" y="1373.0"/>
      <point x="1087.7229760668708" y="1344.596606239533"/>
      <point x="1204.0" y="1212.0" type="curve"/>
      <point x="1106.0" y="1335.0" type="line"/>
      <point x="1381.0" y="923.0" type="line"/>
      <point x="1418.0" y="936.0" type="line"/>
      <point x="1303.0" y="1510.0" type="line"/>
      <point x="1287.0" y="1510.0" type="line"/>
      <point x="1121.0" y="1392.0" type="line"/>
      <point x="1229.0" y="1424.0" type="line"/>
      <point x="1106.2020100937102" y="1451.0571842166403"/>
      <point x="1031.944262295082" y="1460.0"/>
      <point x="911.0" y="1460.0" type="curve" smooth="yes"/>
      <point x="401.0" y="1460.0"/>
      <point x="63.0" y="1162.0"/>
      <point x="63.0" y="728.0" type="curve" smooth="yes"/>
      <point x="63.0" y="232.0"/>
      <point x="379.0" y="-30.0"/>
      <point x="901.0" y="-30.0" type="curve" smooth="yes"/>
      <point x="1070.0066225165563" y="-30.0"/>
      <point x="1198.9734547875871" y="-14.074674912479686"/>
      <point x="1341.0" y="19.0" type="curve"/>
      <point x="1431.0" y="437.0" type="line"/>
      <point x="1392.0" y="437.0" type="line"/>
      <point x="1132.0" y="58.0" type="line"/>
      <point x="1190.0" y="101.0" type="line"/>
      <point x="1140.4949959734236" y="70.53538213749141"/>
      <point x="1080.7602040816328" y="53.0"/>
    </contour>
  </outline>
</glyph>
<glyph name="D" format="2">
  <advance width="1681"/>
  <unicode hex="0044"/>
  <guideline x="28.0" y="65" angle="180.0" identifier="Z5jK7GFPLd"/>
  <anchor x="848.0" y="1430.0" name="UCtop"/>
  <anchor x="848.0" y="0" name="bottom"/>
  <outline>
    <contour>
      <point x="1100.0" y="725.0" type="curve" smooth="yes"/>
      <point x="1100.0" y="275.0"/>
      <point x="987.0" y="100.0"/>
      <point x="770.0" y="100.0" type="curve" smooth="yes"/>
      <point x="473.0" y="100.0" type="line"/>
      <point x="432.0" y="0.0" type="line"/>
      <point x="817.0" y="0.0" type="line" smooth="yes"/>
      <point x="1272.0" y="0.0"/>
      <point x="1616.0" y="253.0"/>
      <point x="1616.0" y="748.0" type="curve" smooth="yes"/>
      <point x="1616.0" y="1182.0"/>
      <point x="1321.0" y="1430.0"/>
      <point x="803.0" y="1430.0" type="curve" smooth="yes"/>
      <point x="432.0" y="1430.0" type="line"/>
      <point x="473.0" y="1330.0" type="line"/>
      <point x="743.0" y="1330.0" type="line" smooth="yes"/>
      <point x="988.0" y="1330.0"/>
      <point x="1100.0" y="1142.0"/>
    </contour>
    <contour>
      <point x="47.0" y="0.0" type="line"/>
      <point x="698.0" y="0.0" type="line"/>
      <point x="698.0" y="1430.0" type="line"/>
      <point x="47.0" y="1430.0" type="line"/>
      <point x="47.0" y="1391.0" type="line"/>
      <point x="190.0" y="1345.0" type="line"/>
      <point x="190.0" y="86.0" type="line"/>
      <point x="47.0" y="38.0" type="line"/>
    </contour>
  </outline>
</glyph>
<glyph name="I" format="2">
  <advance width="888"/>
  <unicode hex="0049"/>
  <anchor x="444.0" y="1430.0" name="UCtop"/>
  <anchor x="614.0" y="0" name="right"/>
  <anchor x="444.0" y="0" name="bottom"/>
  <outline>
    <contour>
      <point x="841.0" y="38.0" type="line"/>
      <point x="698.0" y="86.0" type="line"/>
      <point x="698.0" y="1345.0" type="line"/>
      <point x="841.0" y="1391.0" type="line"/>
      <point x="841.0" y="1430.0" type="line"/>
      <point x="47.0" y="1430.0" type="line"/>
      <point x="47.0" y="1391.0" type="line"/>
      <point x="190.0" y="1345.0" type="line"/>
      <point x="190.0" y="86.0" type="line"/>
      <point x="47.0" y="38.0" type="line"/>
      <point x="47.0" y="0.0" type="line"/>
      <point x="841.0" y="0.0" type="line"/>
    </contour>
  </outline>
</glyph>
<glyph name="M" format="2">
  <advance width="2262"/>
  <unicode hex="004D"/>
  <anchor x="1054.0" y="1430.0" name="UCtop"/>
  <anchor x="1054.0" y="0" name="bottom"/>
  <outline>
    <contour>
      <point x="2090" y="100" type="line"/>
      <point x="1989" y="1337" type="line"/>
      <point x="2168" y="1391" type="line"/>
      <point x="2168" y="1430" type="line"/>
      <point x="1453" y="1430" type="line"/>
      <point x="1097" y="404" type="line"/>
      <point x="1120" y="403" type="line"/>
      <point x="801" y="1430" type="line"/>
      <point x="53" y="1430" type="line"/>
      <point x="53" y="1391" type="line"/>
      <point x="233" y="1304" type="line"/>
      <point x="162" y="74" type="line"/>
      <point x="10" y="38" type="line"/>
      <point x="10" y="0" type="line"/>
      <point x="409" y="0" type="line"/>
      <point x="409" y="38" type="line"/>
      <point x="251" y="74" type="line"/>
      <point x="321" y="1280" type="line"/>
      <point x="301" y="1278" type="line"/>
      <point x="727" y="0" type="line"/>
      <point x="1046" y="0" type="line"/>
      <point x="1494" y="1273" type="line"/>
      <point x="1474" y="1276" type="line"/>
      <point x="1565" y="81" type="line"/>
      <point x="1386" y="38" type="line"/>
      <point x="1386" y="0" type="line"/>
      <point x="2258" y="0" type="line"/>
      <point x="2258" y="38" type="line"/>
    </contour>
  </outline>
</glyph>
<glyph name="X" format="2">
  <advance width="1678"/>
  <unicode hex="0058"/>
  <anchor x="887.0" y="1430.0" name="UCtop"/>
  <anchor x="787.0" y="0" name="bottom"/>
  <outline>
    <contour>
      <point x="745" y="639" type="line"/>
      <point x="942" y="756" type="line"/>
      <point x="1432" y="1343" type="line"/>
      <point x="1571" y="1391" type="line"/>
      <point x="1571" y="1430" type="line"/>
      <point x="1156" y="1430" type="line"/>
      <point x="1156" y="1391" type="line"/>
      <point x="1316" y="1346" type="line"/>
      <point x="893" y="835" type="line"/>
      <point x="695" y="715" type="line"/>
      <point x="149" y="87" type="line"/>
      <point x="7" y="39" type="line"/>
      <point x="7" y="0" type="line"/>
      <point x="423" y="0" type="line"/>
      <point x="423" y="39" type="line"/>
      <point x="264" y="84" type="line"/>
    </contour>
    <contour>
      <point x="973" y="94" type="line"/>
      <point x="814" y="38" type="line"/>
      <point x="814" y="0" type="line"/>
      <point x="1732" y="0" type="line"/>
      <point x="1732" y="38" type="line"/>
      <point x="1580" y="96" type="line"/>
      <point x="1022" y="917" type="line"/>
      <point x="1010" y="935" type="line"/>
      <point x="739" y="1336" type="line"/>
      <point x="901" y="1391" type="line"/>
      <point x="901" y="1430" type="line"/>
      <point x="-18" y="1430" type="line"/>
      <point x="-18" y="1391" type="line"/>
      <point x="137" y="1334" type="line"/>
      <point x="636" y="593" type="line"/>
      <point x="650" y="572" type="line"/>
    </contour>
  </outline>
</glyph>
<glyph name="Y" format="2">
  <advance width="1619"/>
  <unicode hex="0059"/>
  <guideline x="1369.0" y="1347" angle="179.18993212500146" identifier="kK4NvDfztW"/>
  <guideline x="1370" y="1347" angle="59.67883406019013" identifier="Dh4hO6brOB"/>
  <anchor x="896.0" y="1430.0" name="UCtop"/>
  <anchor x="835.0" y="0" name="bottom"/>
  <outline>
    <contour>
      <point x="110" y="1340" type="line"/>
      <point x="581" y="674" type="line"/>
      <point x="581" y="86" type="line"/>
      <point x="438" y="38" type="line"/>
      <point x="438" y="0" type="line"/>
      <point x="1232" y="0" type="line"/>
      <point x="1232" y="38" type="line"/>
      <point x="1089" y="86" type="line"/>
      <point x="1089" y="684" type="line"/>
      <point x="1475" y="1344" type="line"/>
      <point x="1625" y="1391" type="line"/>
      <point x="1625" y="1430" type="line"/>
      <point x="1201" y="1430" type="line"/>
      <point x="1201" y="1391" type="line"/>
      <point x="1364" y="1347" type="line"/>
      <point x="1001" y="724" type="line"/>
      <point x="1086" y="737" type="line"/>
      <point x="690" y="1342" type="line"/>
      <point x="870" y="1391" type="line"/>
      <point x="870" y="1430" type="line"/>
      <point x="-32" y="1430" type="line"/>
      <point x="-32" y="1391" type="line"/>
    </contour>
  </outline>
</glyph>
<glyph name="Z" format="2">
  <advance width="1506"/>
  <unicode hex="005A"/>
  <anchor x="815.0" y="1430.0" name="UCtop"/>
  <anchor x="735.0" y="0" name="bottom"/>
  <outline>
    <contour>
      <point x="1391.0" y="1430.0" type="line"/>
      <point x="299.0" y="1430.0" type="line"/>
      <point x="166.0" y="1512.0" type="line"/>
      <point x="145.0" y="1512.0" type="line"/>
      <point x="37.0" y="975.0" type="line"/>
      <point x="68.0" y="963.0" type="line"/>
      <point x="306.0" y="1330.0" type="line"/>
      <point x="1317.0" y="1330.0" type="line"/>
      <point x="879.0" y="1425.0" type="line"/>
      <point x="77.0" y="51.0" type="line"/>
      <point x="77.0" y="0.0" type="line"/>
      <point x="1201.0" y="0.0" type="line"/>
      <point x="1370.0" y="-82.0" type="line"/>
      <point x="1400.0" y="-82.0" type="line"/>
      <point x="1493.0" y="475.0" type="line"/>
      <point x="1462.0" y="488.0" type="line"/>
      <point x="1193.0" y="100.0" type="line"/>
      <point x="307.0" y="100.0" type="line"/>
      <point x="592.0" y="9.0" type="line"/>
      <point x="1391.0" y="1379.0" type="line"/>
    </contour>
  </outline>
</glyph>
<glyph name="bracketleft" format="2">
  <advance width="623"/>
  <unicode hex="005B"/>
  <outline>
    <contour>
      <point x="152.0" y="-208.0" type="line"/>
      <point x="617.0" y="-208.0" type="line"/>
      <point x="617.0" y="-168.0" type="line"/>
      <point x="390.0" y="-138.0" type="line"/>
      <point x="390.0" y="1394.0" type="line"/>
      <point x="617.0" y="1424.0" type="line"/>
      <point x="617.0" y="1464.0" type="line"/>
      <point x="152.0" y="1464.0" type="line"/>
    </contour>
  </outline>
</glyph>
<glyph name="backslash" format="2">
  <advance width="777"/>
  <unicode hex="005C"/>
  <outline>
    <contour>
      <point x="733.0" y="0.0" type="line"/>
      <point x="136.0" y="1430.0" type="line"/>
      <point x="41.0" y="1430.0" type="line"/>
      <point x="638.0" y="0.0" type="line"/>
    </contour>
  </outline>
</glyph>
<glyph name="asciicircum" format="2">
  <advance width="1150"/>
  <unicode hex="005E"/>
  <guideline x="503" y="1246" angle="67.29316685461875" identifier="xLWgQyvl5X"/>
  <outline>
    <contour>
      <point x="569.0" y="1327.0" type="line"/>
      <point x="881.0" y="662.0" type="line"/>
      <point x="984.0" y="662.0" type="line"/>
      <point x="622.0" y="1430.0" type="line"/>
      <point x="526.0" y="1430.0" type="line"/>
      <point x="166.0" y="662.0" type="line"/>
      <point x="269.0" y="662.0" type="line"/>
      <point x="578.0" y="1327.0" type="line"/>
    </contour>
  </outline>
</glyph>
<glyph name="c" format="2">
  <advance width="1067"/>
  <unicode hex="0063"/>
  <anchor x="568.0" y="1024.0" name="top"/>
  <anchor x="1026.0" y="0" name="right"/>
  <anchor x="585.0" y="0" name="bottom"/>
  <outline>
    <contour>
      <point x="649.0" y="1054.0" type="curve" smooth="yes"/>
      <point x="317.0" y="1054.0"/>
      <point x="45.0" y="813.0"/>
      <point x="45.0" y="492.0" type="curve" smooth="yes"/>
      <point x="45.0" y="168.0"/>
      <point x="248.0" y="-30.0"/>
      <point x="566.0" y="-30.0" type="curve" smooth="yes"/>
      <point x="763.0" y="-30.0"/>
      <point x="899.0" y="58.0"/>
      <point x="1046.0" y="333.0" type="curve"/>
      <point x="1017.0" y="359.0" type="line"/>
      <point x="915.0" y="267.0"/>
      <point x="850.0" y="245.0"/>
      <point x="736.0" y="245.0" type="curve" smooth="yes"/>
      <point x="553.0" y="245.0"/>
      <point x="449.0" y="362.0"/>
      <point x="449.0" y="696.0" type="curve" smooth="yes"/>
      <point x="449.0" y="921.0"/>
      <point x="497.0" y="980.0"/>
      <point x="570.0" y="980.0" type="curve" smooth="yes"/>
      <point x="694.0" y="980.0"/>
      <point x="854.0" y="715.0"/>
      <point x="894.0" y="715.0" type="curve" smooth="yes"/>
      <point x="962.0" y="715.0"/>
      <point x="1036.0" y="771.0"/>
      <point x="1036.0" y="853.0" type="curve" smooth="yes"/>
      <point x="1036.0" y="944.0"/>
      <point x="940.0" y="1054.0"/>
    </contour>
  </outline>
</glyph>
<glyph name="e" format="2">
  <advance width="1087"/>
  <unicode hex="0065"/>
  <guideline x="-518.0" y="974" angle="0" identifier="YlqT4R3iSZ"/>
  <anchor x="553.0" y="1024.0" name="top"/>
  <anchor x="1058.0" y="0" name="right"/>
  <anchor x="583.0" y="0" name="bottom"/>
  <outline>
    <contour>
      <point x="600.0" y="1054.0" type="curve" smooth="yes"/>
      <point x="233.0" y="1054.0"/>
      <point x="47.0" y="790.0"/>
      <point x="47.0" y="490.0" type="curve" smooth="yes"/>
      <point x="47.0" y="167.0"/>
      <point x="250.0" y="-30.0"/>
      <point x="568.0" y="-30.0" type="curve" smooth="yes"/>
      <point x="767.0" y="-30.0"/>
      <point x="908.0" y="63.0"/>
      <point x="1058.0" y="343.0" type="curve"/>
      <point x="1029.0" y="369.0" type="line"/>
      <point x="926.0" y="272.0"/>
      <point x="855.0" y="245.0"/>
      <point x="748.0" y="245.0" type="curve" smooth="yes"/>
      <point x="549.0" y="245.0"/>
      <point x="451.0" y="357.0"/>
      <point x="451.0" y="652.0" type="curve" smooth="yes"/>
      <point x="451.0" y="923.0"/>
      <point x="489.0" y="974.0"/>
      <point x="564.0" y="974.0" type="curve" smooth="yes"/>
      <point x="631.0" y="974.0"/>
      <point x="660.0" y="910.0"/>
      <point x="668.0" y="649.0" type="curve"/>
      <point x="870.0" y="704.0" type="line"/>
      <point x="358.0" y="704.0" type="line"/>
      <point x="358.0" y="613.0" type="line"/>
      <point x="1044.0" y="613.0" type="line"/>
      <point x="1023.0" y="887.0"/>
      <point x="878.0" y="1054.0"/>
    </contour>
  </outline>
</glyph>
<glyph name="k" format="2">
  <advance width="1332"/>
  <unicode hex="006B"/>
  <anchor x="688.0" y="1430.0" name="UCtop"/>
  <anchor x="685.0" y="0" name="bottom"/>
  <outline>
    <contour>
      <point x="680.0" y="640.0" type="line"/>
      <point x="1134.0" y="950.0" type="line"/>
      <point x="1312.0" y="991.0" type="line"/>
      <point x="1312.0" y="1024.0" type="line"/>
      <point x="850.0" y="1024.0" type="line"/>
      <point x="850.0" y="991.0" type="line"/>
      <point x="1013.0" y="951.0" type="line"/>
      <point x="585.0" y="608.0" type="line"/>
      <point x="457.0" y="608.0" type="line"/>
      <point x="457.0" y="535.0" type="line"/>
      <point x="584.0" y="535.0" type="line"/>
      <point x="804.0" y="61.0" type="line"/>
      <point x="739.0" y="33.0" type="line"/>
      <point x="739.0" y="0.0" type="line"/>
      <point x="1368.0" y="0.0" type="line"/>
      <point x="1368.0" y="33.0" type="line"/>
      <point x="1290.0" y="69.0" type="line"/>
      <point x="881.0" y="824.0" type="line"/>
    </contour>
    <contour>
      <point x="562.0" y="68.0" type="line"/>
      <point x="562.0" y="1276.0" type="line"/>
      <point x="562.0" y="1494.0" type="line"/>
      <point x="535.0" y="1494.0" type="line"/>
      <point x="-38.0" y="1367.0" type="line"/>
      <point x="-38.0" y="1334.0" type="line"/>
      <point x="40.0" y="1254.5555555555557"/>
      <point x="98.0" y="1195.4814814814815"/>
      <point x="124.0" y="1169.0" type="curve"/>
      <point x="124.0" y="68.0" type="line"/>
      <point x="38.0" y="33.0" type="line"/>
      <point x="38.0" y="0.0" type="line"/>
      <point x="638.0" y="0.0" type="line"/>
      <point x="638.0" y="33.0" type="line"/>
    </contour>
  </outline>
</glyph>
<glyph name="w" format="2">
  <advance width="1802"/>
  <unicode hex="0077"/>
  <anchor x="995.0" y="1024.0" name="top"/>
  <anchor x="925.0" y="0" name="bottom"/>
  <outline>
    <contour>
      <point x="1639.0" y="966.0" type="line"/>
      <point x="1434.0" y="142.0" type="line"/>
      <point x="1509.0" y="227.0" type="line"/>
      <point x="1235.0" y="1024.0" type="line"/>
      <point x="920.0" y="1024.0" type="line"/>
      <point x="647.0" y="141.0" type="line"/>
      <point x="720.0" y="225.0" type="line"/>
      <point x="520.0" y="962.0" type="line"/>
      <point x="625.0" y="991.0" type="line"/>
      <point x="625.0" y="1024.0" type="line"/>
      <point x="-27.0" y="1024.0" type="line"/>
      <point x="-27.0" y="994.0" type="line"/>
      <point x="67.0" y="950.0" type="line"/>
      <point x="359.0" y="0.0" type="line"/>
      <point x="672.0" y="0.0" type="line"/>
      <point x="943.0" y="833.0" type="line"/>
      <point x="870.0" y="798.0" type="line"/>
      <point x="1149.0" y="0.0" type="line"/>
      <point x="1462.0" y="0.0" type="line"/>
      <point x="1723.0" y="964.0" type="line"/>
      <point x="1818.0" y="991.0" type="line"/>
      <point x="1818.0" y="1024.0" type="line"/>
      <point x="1534.0" y="1024.0" type="line"/>
      <point x="1534.0" y="991.0" type="line"/>
    </contour>
  </outline>
</glyph>
<glyph name="exclamdown" format="2">
  <advance width="626"/>
  <unicode hex="00A1"/>
  <outline>
    <contour>
      <point x="57.0" y="-222.0" type="line" smooth="yes"/>
      <point x="57.0" y="-356.0"/>
      <point x="185.0" y="-434.0"/>
      <point x="313.0" y="-434.0" type="curve" smooth="yes"/>
      <point x="441.0" y="-434.0"/>
      <point x="569.0" y="-356.0"/>
      <point x="569.0" y="-222.0" type="curve" smooth="yes"/>
      <point x="569.0" y="-202.0" type="line" smooth="yes"/>
      <point x="569.0" y="-100.0"/>
      <point x="422.0" y="98.0"/>
      <point x="335.0" y="473.0" type="curve"/>
      <point x="291.0" y="473.0" type="line"/>
      <point x="204.0" y="98.0"/>
      <point x="57.0" y="-100.0"/>
      <point x="57.0" y="-202.0" type="curve" smooth="yes"/>
    </contour>
    <contour>
      <point x="313.0" y="630.0" type="curve" smooth="yes"/>
      <point x="440.0" y="630.0"/>
      <point x="529.0" y="721.0"/>
      <point x="529.0" y="840.0" type="curve" smooth="yes"/>
      <point x="529.0" y="959.0"/>
      <point x="440.0" y="1050.0"/>
      <point x="313.0" y="1050.0" type="curve" smooth="yes"/>
      <point x="186.0" y="1050.0"/>
      <point x="97.0" y="959.0"/>
      <point x="97.0" y="840.0" type="curve" smooth="yes"/>
      <point x="97.0" y="721.0"/>
      <point x="186.0" y="630.0"/>
    </contour>
  </outline>
</glyph>
<glyph name="currency" format="2">
  <advance width="908"/>
  <unicode hex="00A4"/>
  <outline>
    <contour>
      <point x="163.0" y="871.0" type="line"/>
      <point x="95.0" y="803.0" type="line"/>
      <point x="208.0" y="690.0" type="line"/>
      <point x="276.0" y="758.0" type="line"/>
    </contour>
    <contour>
      <point x="95.0" y="221.0" type="line"/>
      <point x="163.0" y="153.0" type="line"/>
      <point x="272.0" y="262.0" type="line"/>
      <point x="204.0" y="330.0" type="line"/>
    </contour>
    <contour>
      <point x="454.0" y="819.0" type="curve" smooth="yes"/>
      <point x="275.0" y="819.0"/>
      <point x="146.0" y="691.0"/>
      <point x="146.0" y="512.0" type="curve" smooth="yes"/>
      <point x="146.0" y="333.0"/>
      <point x="275.0" y="205.0"/>
      <point x="454.0" y="205.0" type="curve" smooth="yes"/>
      <point x="633.0" y="205.0"/>
      <point x="762.0" y="333.0"/>
      <point x="762.0" y="512.0" type="curve" smooth="yes"/>
      <point x="762.0" y="691.0"/>
      <point x="633.0" y="819.0"/>
    </contour>
    <contour>
      <point x="454.0" y="295.0" type="curve" smooth="yes"/>
      <point x="330.0" y="295.0"/>
      <point x="241.0" y="382.0"/>
      <point x="241.0" y="512.0" type="curve" smooth="yes"/>
      <point x="241.0" y="642.0"/>
      <point x="330.0" y="729.0"/>
      <point x="454.0" y="729.0" type="curve" smooth="yes"/>
      <point x="578.0" y="729.0"/>
      <point x="667.0" y="642.0"/>
      <point x="667.0" y="512.0" type="curve" smooth="yes"/>
      <point x="667.0" y="382.0"/>
      <point x="578.0" y="295.0"/>
    </contour>
    <contour>
      <point x="813.0" y="803.0" type="line"/>
      <point x="745.0" y="871.0" type="line"/>
      <point x="632.0" y="758.0" type="line"/>
      <point x="700.0" y="690.0" type="line"/>
    </contour>
    <contour>
      <point x="813.0" y="221.0" type="line"/>
      <point x="704.0" y="330.0" type="line"/>
      <point x="636.0" y="262.0" type="line"/>
      <point x="745.0" y="153.0" type="line"/>
    </contour>
  </outline>
</glyph>
<glyph name="section" format="2">
  <advance width="1324"/>
  <unicode hex="00A7"/>
  <outline>
    <contour>
      <point x="569.0" y="-218.0" type="curve" smooth="yes"/>
      <point x="951.0" y="-218.0"/>
      <point x="1118.0" y="-48.0"/>
      <point x="1118.0" y="172.0" type="curve" smooth="yes"/>
      <point x="1118.0" y="566.0"/>
      <point x="348.0" y="475.0"/>
      <point x="348.0" y="722.0" type="curve" smooth="yes"/>
      <point x="348.0" y="786.0"/>
      <point x="381.0" y="833.0"/>
      <point x="421.0" y="855.0" type="curve"/>
      <point x="393.0" y="879.0" type="line"/>
      <point x="195.0" y="824.0"/>
      <point x="83.0" y="705.0"/>
      <point x="83.0" y="539.0" type="curve" smooth="yes"/>
      <point x="83.0" y="93.0"/>
      <point x="824.0" y="217.0"/>
      <point x="824.0" y="-11.0" type="curve" smooth="yes"/>
      <point x="824.0" y="-79.0"/>
      <point x="779.0" y="-138.0"/>
      <point x="652.0" y="-138.0" type="curve" smooth="yes"/>
      <point x="505.0" y="-138.0"/>
      <point x="368.0" y="94.0"/>
      <point x="331.0" y="94.0" type="curve" smooth="yes"/>
      <point x="251.0" y="94.0"/>
      <point x="201.0" y="45.0"/>
      <point x="201.0" y="-32.0" type="curve" smooth="yes"/>
      <point x="201.0" y="-135.0"/>
      <point x="308.0" y="-218.0"/>
    </contour>
    <contour>
      <point x="976.0" y="520.0" type="curve" smooth="yes"/>
      <point x="976.0" y="456.0"/>
      <point x="943.0" y="409.0"/>
      <point x="903.0" y="387.0" type="curve"/>
      <point x="931.0" y="363.0" type="line"/>
      <point x="1129.0" y="418.0"/>
      <point x="1241.0" y="537.0"/>
      <point x="1241.0" y="703.0" type="curve" smooth="yes"/>
      <point x="1241.0" y="1156.0"/>
      <point x="500.0" y="1017.0"/>
      <point x="500.0" y="1253.0" type="curve" smooth="yes"/>
      <point x="500.0" y="1321.0"/>
      <point x="545.0" y="1380.0"/>
      <point x="672.0" y="1380.0" type="curve" smooth="yes"/>
      <point x="819.0" y="1380.0"/>
      <point x="956.0" y="1148.0"/>
      <point x="993.0" y="1148.0" type="curve" smooth="yes"/>
      <point x="1073.0" y="1148.0"/>
      <point x="1123.0" y="1197.0"/>
      <point x="1123.0" y="1274.0" type="curve" smooth="yes"/>
      <point x="1123.0" y="1377.0"/>
      <point x="1016.0" y="1460.0"/>
      <point x="755.0" y="1460.0" type="curve" smooth="yes"/>
      <point x="373.0" y="1460.0"/>
      <point x="206.0" y="1290.0"/>
      <point x="206.0" y="1070.0" type="curve" smooth="yes"/>
      <point x="206.0" y="679.0"/>
      <point x="976.0" y="765.0"/>
    </contour>
  </outline>
</glyph>
<glyph name="guillemotleft" format="2">
  <advance width="945"/>
  <unicode hex="00AB"/>
  <outline>
    <contour>
      <point x="266.0" y="632.0" type="line"/>
      <point x="266.0" y="412.0" type="line"/>
      <point x="486.0" y="964.0" type="line"/>
      <point x="464.0" y="980.0" type="line"/>
      <point x="21.0" y="532.0" type="line"/>
      <point x="21.0" y="512.0" type="line"/>
      <point x="464.0" y="64.0" type="line"/>
      <point x="486.0" y="80.0" type="line"/>
    </contour>
    <contour>
      <point x="666.0" y="632.0" type="line"/>
      <point x="666.0" y="412.0" type="line"/>
      <point x="886.0" y="964.0" type="line"/>
      <point x="864.0" y="980.0" type="line"/>
      <point x="421.0" y="532.0" type="line"/>
      <point x="421.0" y="512.0" type="line"/>
      <point x="864.0" y="64.0" type="line"/>
      <point x="886.0" y="80.0" type="line"/>
    </contour>
  </outline>
</glyph>
<glyph name="plusminus" format="2">
  <advance width="1150"/>
  <unicode hex="00B1"/>
  <outline>
    <contour>
      <point x="527.0" y="1024.0" type="line"/>
      <point x="527.0" y="202.0" type="line"/>
      <point x="623.0" y="202.0" type="line"/>
      <point x="623.0" y="1024.0" type="line"/>
    </contour>
    <contour>
      <point x="164.0" y="661.0" type="line"/>
      <point x="164.0" y="565.0" type="line"/>
      <point x="986.0" y="565.0" type="line"/>
      <point x="986.0" y="661.0" type="line"/>
    </contour>
    <contour>
      <point x="164.0" y="96.0" type="line"/>
      <point x="164.0" y="0.0" type="line"/>
      <point x="986.0" y="0.0" type="line"/>
      <point x="986.0" y="96.0" type="line"/>
    </contour>
  </outline>
</glyph>
<glyph name="ordmasculine" format="2">
  <advance width="969"/>
  <unicode hex="00BA"/>
  <outline>
    <contour>
      <point x="117.0" y="560.0" type="line"/>
      <point x="851.0" y="560.0" type="line"/>
      <point x="851.0" y="639.0" type="line"/>
      <point x="117.0" y="639.0" type="line"/>
    </contour>
    <contour>
      <point x="486.0" y="839.0" type="curve" smooth="yes"/>
      <point x="415.0" y="839.0"/>
      <point x="407.0" y="941.6561514195583"/>
      <point x="407.0" y="1146.0" type="curve" smooth="yes"/>
      <point x="407.0" y="1331.689393939394"/>
      <point x="419.0" y="1400.0"/>
      <point x="482.0" y="1400.0" type="curve" smooth="yes"/>
      <point x="552.0" y="1400.0"/>
      <point x="561.0" y="1298.3227848101267"/>
      <point x="561.0" y="1094.0" type="curve" smooth="yes"/>
      <point x="561.0" y="907.3207547169811"/>
      <point x="548.0" y="839.0"/>
    </contour>
    <contour>
      <point x="473.0" y="780.0" type="curve" smooth="yes"/>
      <point x="703.0" y="780.0"/>
      <point x="873.0" y="919.0"/>
      <point x="873.0" y="1124.0" type="curve" smooth="yes"/>
      <point x="873.0" y="1323.0"/>
      <point x="729.0" y="1460.0"/>
      <point x="494.0" y="1460.0" type="curve" smooth="yes"/>
      <point x="262.0" y="1460.0"/>
      <point x="95.0" y="1320.0"/>
      <point x="95.0" y="1116.0" type="curve" smooth="yes"/>
      <point x="95.0" y="917.0"/>
      <point x="243.0" y="780.0"/>
    </contour>
  </outline>
</glyph>
<glyph name="guillemotright" format="2">
  <advance width="1022"/>
  <unicode hex="00BB"/>
  <outline>
    <contour>
      <point x="307.0" y="413.0" type="line"/>
      <point x="307.0" y="633.0" type="line"/>
      <point x="87.0" y="81.0" type="line"/>
      <point x="109.0" y="65.0" type="line"/>
      <point x="552.0" y="513.0" type="line"/>
      <point x="552.0" y="533.0" type="line"/>
      <point x="109.0" y="981.0" type="line"/>
      <point x="87.0" y="965.0" type="line"/>
    </contour>
    <contour>
      <point x="707.0" y="413.0" type="line"/>
      <point x="707.0" y="633.0" type="line"/>
      <point x="487.0" y="81.0" type="line"/>
      <point x="509.0" y="65.0" type="line"/>
      <point x="952.0" y="513.0" type="line"/>
      <point x="952.0" y="533.0" type="line"/>
      <point x="509.0" y="981.0" type="line"/>
      <point x="487.0" y="965.0" type="line"/>
    </contour>
  </outline>
</glyph>
<glyph name="questiondown" format="2">
  <advance width="1076"/>
  <unicode hex="00BF"/>
  <outline>
    <contour>
      <point x="745.0" y="-436.0" type="curve" smooth="yes"/>
      <point x="965.0" y="-436.0"/>
      <point x="1047.0" y="-364.0"/>
      <point x="1047.0" y="-266.0" type="curve" smooth="yes"/>
      <point x="1047.0" y="-183.0"/>
      <point x="966.0" y="-110.0"/>
      <point x="904.0" y="-110.0" type="curve" smooth="yes"/>
      <point x="865.0" y="-110.0"/>
      <point x="708.0" y="-324.0"/>
      <point x="507.0" y="-324.0" type="curve" smooth="yes"/>
      <point x="392.0" y="-324.0"/>
      <point x="338.0" y="-264.0"/>
      <point x="338.0" y="-158.0" type="curve" smooth="yes"/>
      <point x="338.0" y="-39.0"/>
      <point x="404.0" y="39.0"/>
      <point x="766.0" y="39.0" type="curve"/>
      <point x="649.0" y="471.0" type="line"/>
      <point x="602.0" y="471.0" type="line"/>
      <point x="602.0" y="148.0" type="line"/>
      <point x="639.0" y="350.0" type="line"/>
      <point x="262.0" y="365.0"/>
      <point x="132.0" y="274.0"/>
      <point x="132.0" y="19.0" type="curve" smooth="yes"/>
      <point x="132.0" y="-220.0"/>
      <point x="338.0" y="-436.0"/>
    </contour>
    <contour>
      <point x="625.0" y="628.0" type="curve" smooth="yes"/>
      <point x="752.0" y="628.0"/>
      <point x="841.0" y="719.0"/>
      <point x="841.0" y="838.0" type="curve" smooth="yes"/>
      <point x="841.0" y="957.0"/>
      <point x="752.0" y="1048.0"/>
      <point x="625.0" y="1048.0" type="curve" smooth="yes"/>
      <point x="498.0" y="1048.0"/>
      <point x="409.0" y="957.0"/>
      <point x="409.0" y="838.0" type="curve" smooth="yes"/>
      <point x="409.0" y="719.0"/>
      <point x="498.0" y="628.0"/>
    </contour>
  </outline>
</glyph>
<glyph name="AE" format="2">
  <advance width="2307"/>
  <unicode hex="00C6"/>
  <guideline x="353.0" y="83" angle="179.41527690586665" identifier="gkIwTr3MMj"/>
  <anchor x="1220.0" y="1430.0" name="UCtop"/>
  <anchor x="1220.0" y="0" name="bottom"/>
  <outline>
    <contour>
      <point x="441.0" y="490.0" type="line"/>
      <point x="1074.0" y="490.0" type="line"/>
      <point x="1074.0" y="580.0" type="line"/>
      <point x="441.0" y="580.0" type="line"/>
    </contour>
    <contour>
      <point x="932.0" y="1430.0" type="line"/>
      <point x="100.0" y="86.0" type="line"/>
      <point x="-52.0" y="36.0" type="line"/>
      <point x="-52.0" y="0.0" type="line"/>
      <point x="378.0" y="0.0" type="line"/>
      <point x="378.0" y="36.0" type="line"/>
      <point x="204.0" y="83.0" type="line"/>
      <point x="1005.0" y="1381.0" type="line"/>
      <point x="1005.0" y="1430.0" type="line"/>
    </contour>
    <contour>
      <point x="706.0" y="1391.0" type="line"/>
      <point x="881.0" y="1345.0" type="line"/>
      <point x="948.0" y="1430.0" type="line"/>
      <point x="706.0" y="1430.0" type="line"/>
    </contour>
    <contour>
      <point x="1873.0" y="1079.0" type="line"/>
      <point x="1841.0" y="1079.0" type="line"/>
      <point x="1702.0" y="810.0" type="line"/>
      <point x="1382.0" y="785.0" type="line"/>
      <point x="1382.0" y="709.0" type="line"/>
      <point x="1702.0" y="686.0" type="line"/>
      <point x="1841.0" y="415.0" type="line"/>
      <point x="1873.0" y="415.0" type="line"/>
      <point x="1819.0" y="746.0" type="line"/>
    </contour>
    <contour>
      <point x="2212.0" y="971.0" type="line"/>
      <point x="2108.0" y="1519.0" type="line"/>
      <point x="2087.0" y="1519.0" type="line"/>
      <point x="1936.0" y="1430.0" type="line"/>
      <point x="1208.0" y="1430.0" type="line"/>
      <point x="1208.0" y="1330.0" type="line"/>
      <point x="2061.0" y="1330.0" type="line"/>
      <point x="1891.0" y="1387.0" type="line"/>
      <point x="2173.0" y="959.0" type="line"/>
    </contour>
    <contour>
      <point x="1948.0" y="54.0" type="line"/>
      <point x="2093.0" y="100.0" type="line"/>
      <point x="1208.0" y="100.0" type="line"/>
      <point x="1208.0" y="0.0" type="line"/>
      <point x="1992.0" y="0.0" type="line"/>
      <point x="2131.0" y="-83.0" type="line"/>
      <point x="2161.0" y="-83.0" type="line"/>
      <point x="2291.0" y="492.0" type="line"/>
      <point x="2246.0" y="503.0" type="line"/>
    </contour>
    <contour>
      <point x="823.0" y="0.0" type="line"/>
      <point x="1474.0" y="0.0" type="line"/>
      <point x="1474.0" y="1430.0" type="line"/>
      <point x="966.0" y="1430.0" type="line"/>
      <point x="966.0" y="86.0" type="line"/>
      <point x="823.0" y="38.0" type="line"/>
    </contour>
  </outline>
</glyph>
<glyph name="Ccedilla" format="2">
  <advance width="1479"/>
  <unicode hex="00C7"/>
  <outline>
    <contour>
      <point x="1008.0" y="53.0" type="curve" smooth="yes"/>
      <point x="773.0" y="53.0"/>
      <point x="583.0" y="392.0"/>
      <point x="583.0" y="807.0" type="curve" smooth="yes"/>
      <point x="583.0" y="1228.0"/>
      <point x="710.0" y="1373.0"/>
      <point x="908.0" y="1373.0" type="curve" smooth="yes"/>
      <point x="1006.0" y="1373.0"/>
      <point x="1089.0" y="1345.0"/>
      <point x="1205.0" y="1212.0" type="curve"/>
      <point x="1107.0" y="1335.0" type="line"/>
      <point x="1382.0" y="923.0" type="line"/>
      <point x="1419.0" y="936.0" type="line"/>
      <point x="1304.0" y="1510.0" type="line"/>
      <point x="1288.0" y="1510.0" type="line"/>
      <point x="1122.0" y="1392.0" type="line"/>
      <point x="1230.0" y="1424.0" type="line"/>
      <point x="1107.0" y="1451.0"/>
      <point x="1033.0" y="1460.0"/>
      <point x="912.0" y="1460.0" type="curve" smooth="yes"/>
      <point x="402.0" y="1460.0"/>
      <point x="64.0" y="1162.0"/>
      <point x="64.0" y="728.0" type="curve" smooth="yes"/>
      <point x="64.0" y="232.0"/>
      <point x="380.0" y="-30.0"/>
      <point x="902.0" y="-30.0" type="curve" smooth="yes"/>
      <point x="1071.0" y="-30.0"/>
      <point x="1200.0" y="-14.0"/>
      <point x="1342.0" y="19.0" type="curve"/>
      <point x="1432.0" y="437.0" type="line"/>
      <point x="1393.0" y="437.0" type="line"/>
      <point x="1133.0" y="58.0" type="line"/>
      <point x="1191.0" y="101.0" type="line"/>
      <point x="1141.0" y="71.0"/>
      <point x="1082.0" y="53.0"/>
    </contour>
    <contour>
      <point x="746.0" y="-465.0" type="curve" smooth="yes"/>
      <point x="903.0" y="-465.0"/>
      <point x="1051.0" y="-364.0"/>
      <point x="1051.0" y="-239.0" type="curve" smooth="yes"/>
      <point x="1051.0" y="-165.0"/>
      <point x="1014.0" y="-102.0"/>
      <point x="806.0" y="-57.0" type="curve"/>
      <point x="761.0" y="-190.0" type="line"/>
      <point x="958.0" y="49.0" type="line"/>
      <point x="884.0" y="49.0" type="line"/>
      <point x="667.0" y="-224.0" type="line"/>
      <point x="667.0" y="-229.0" type="line"/>
      <point x="861.0" y="-260.0"/>
      <point x="893.0" y="-301.0"/>
      <point x="893.0" y="-339.0" type="curve" smooth="yes"/>
      <point x="893.0" y="-383.0"/>
      <point x="862.0" y="-408.0"/>
      <point x="811.0" y="-408.0" type="curve" smooth="yes"/>
      <point x="751.0" y="-408.0"/>
      <point x="674.0" y="-312.0"/>
      <point x="658.0" y="-312.0" type="curve" smooth="yes"/>
      <point x="620.0" y="-312.0"/>
      <point x="602.0" y="-344.0"/>
      <point x="602.0" y="-376.0" type="curve" smooth="yes"/>
      <point x="602.0" y="-426.0"/>
      <point x="641.0" y="-465.0"/>
    </contour>
  </outline>
</glyph>
<glyph name="thorn" format="2">
  <advance width="1288"/>
  <unicode hex="00FE"/>
  <outline>
    <contour>
      <point x="22.0" y="1254.5555555555557"/>
      <point x="80.0" y="1195.4814814814815"/>
      <point x="106.0" y="1169.0" type="curve"/>
      <point x="106.0" y="-367.0" type="line"/>
      <point x="20.0" y="-402.0" type="line"/>
      <point x="20.0" y="-435.0" type="line"/>
      <point x="650.0" y="-435.0" type="line"/>
      <point x="650.0" y="-402.0" type="line"/>
      <point x="544.0" y="-367.0" type="line"/>
      <point x="544.0" y="47.0" type="line"/>
      <point x="308.0" y="47.0" type="line"/>
      <point x="419.0" y="-8.0"/>
      <point x="536.0" y="-30.0"/>
      <point x="659.0" y="-30.0" type="curve" smooth="yes"/>
      <point x="988.0" y="-30.0"/>
      <point x="1237.0" y="183.0"/>
      <point x="1237.0" y="587.0" type="curve" smooth="yes"/>
      <point x="1237.0" y="894.0"/>
      <point x="1114.0" y="1054.0"/>
      <point x="874.0" y="1054.0" type="curve" smooth="yes"/>
      <point x="746.0" y="1054.0"/>
      <point x="678.0" y="1026.0"/>
      <point x="491.0" y="836.0" type="curve"/>
      <point x="491.0" y="799.0" type="line"/>
      <point x="523.0" y="821.0"/>
      <point x="566.0" y="843.0"/>
      <point x="623.0" y="843.0" type="curve" smooth="yes"/>
      <point x="748.0" y="843.0"/>
      <point x="787.0" y="757.0"/>
      <point x="787.0" y="491.0" type="curve" smooth="yes"/>
      <point x="787.0" y="140.0"/>
      <point x="733.0" y="43.0"/>
      <point x="643.0" y="43.0" type="curve" smooth="yes"/>
      <point x="574.0" y="43.0"/>
      <point x="544.0" y="93.0"/>
      <point x="544.0" y="186.0" type="curve" smooth="yes"/>
      <point x="544.0" y="1276.0" type="line"/>
      <point x="544.0" y="1494.0" type="line"/>
      <point x="517.0" y="1494.0" type="line"/>
      <point x="-56.0" y="1367.0" type="line"/>
      <point x="-56.0" y="1334.0" type="line"/>
    </contour>
  </outline>
</glyph>
<glyph name="Hbar" format="2">
  <advance width="1856"/>
  <unicode hex="0126"/>
  <outline>
    <contour>
      <point x="700.0" y="86.0" type="line"/>
      <point x="700.0" y="1345.0" type="line"/>
      <point x="843.0" y="1391.0" type="line"/>
      <point x="843.0" y="1430.0" type="line"/>
      <point x="49.0" y="1430.0" type="line"/>
      <point x="49.0" y="1391.0" type="line"/>
      <point x="192.0" y="1345.0" type="line"/>
      <point x="192.0" y="86.0" type="line"/>
      <point x="49.0" y="38.0" type="line"/>
      <point x="49.0" y="0.0" type="line"/>
      <point x="843.0" y="0.0" type="line"/>
      <point x="843.0" y="38.0" type="line"/>
    </contour>
    <contour>
      <point x="1664.0" y="86.0" type="line"/>
      <point x="1664.0" y="1345.0" type="line"/>
      <point x="1807.0" y="1391.0" type="line"/>
      <point x="1807.0" y="1430.0" type="line"/>
      <point x="1013.0" y="1430.0" type="line"/>
      <point x="1013.0" y="1391.0" type="line"/>
      <point x="1156.0" y="1345.0" type="line"/>
      <point x="1156.0" y="86.0" type="line"/>
      <point x="1013.0" y="38.0" type="line"/>
      <point x="1013.0" y="0.0" type="line"/>
      <point x="1807.0" y="0.0" type="line"/>
      <point x="1807.0" y="38.0" type="line"/>
    </contour>
    <contour>
      <point x="49.0" y="1042.0" type="line"/>
      <point x="1807.0" y="1042.0" type="line"/>
      <point x="1807.0" y="1136.0" type="line"/>
      <point x="49.0" y="1136.0" type="line"/>
    </contour>
    <contour>
      <point x="434.0" y="692.0" type="line"/>
      <point x="1419.0" y="692.0" type="line"/>
      <point x="1419.0" y="792.0" type="line"/>
      <point x="434.0" y="792.0" type="line"/>
    </contour>
  </outline>
</glyph>
<glyph name="kgreenlandic" format="2">
  <advance width="1348"/>
  <unicode hex="0138"/>
  <outline>
    <contour>
      <point x="601.0" y="455.0" type="line"/>
      <point x="821.0" y="61.0" type="line"/>
      <point x="756.0" y="33.0" type="line"/>
      <point x="756.0" y="0.0" type="line"/>
      <point x="1385.0" y="0.0" type="line"/>
      <point x="1385.0" y="33.0" type="line"/>
      <point x="1307.0" y="69.0" type="line"/>
      <point x="898.0" y="744.0" type="line"/>
      <point x="697.0" y="560.0" type="line"/>
      <point x="1151.0" y="950.0" type="line"/>
      <point x="1329.0" y="991.0" type="line"/>
      <point x="1329.0" y="1024.0" type="line"/>
      <point x="867.0" y="1024.0" type="line"/>
      <point x="867.0" y="991.0" type="line"/>
      <point x="1030.0" y="951.0" type="line"/>
      <point x="602.0" y="528.0" type="line"/>
      <point x="474.0" y="528.0" type="line"/>
      <point x="474.0" y="455.0" type="line"/>
    </contour>
    <contour>
      <point x="579.0" y="1054.0" type="line"/>
      <point x="552.0" y="1054.0" type="line"/>
      <point x="29.0" y="916.0" type="line"/>
      <point x="29.0" y="883.0" type="line"/>
      <point x="90.0" y="804.0267857142858"/>
      <point x="119.0" y="766.4821428571429"/>
      <point x="141.0" y="738.0" type="curve"/>
      <point x="141.0" y="68.0" type="line"/>
      <point x="55.0" y="33.0" type="line"/>
      <point x="55.0" y="0.0" type="line"/>
      <point x="654.0" y="0.0" type="line"/>
      <point x="654.0" y="33.0" type="line"/>
      <point x="579.0" y="65.0" type="line"/>
      <point x="579.0" y="836.0" type="line"/>
    </contour>
  </outline>
</glyph>
<glyph name="Scedilla" format="2">
  <advance width="1296"/>
  <unicode hex="015E"/>
  <outline>
    <contour>
      <point x="1058.0" y="1373.0" type="line"/>
      <point x="931.0" y="1433.0"/>
      <point x="828.0" y="1460.0"/>
      <point x="687.0" y="1460.0" type="curve" smooth="yes"/>
      <point x="324.0" y="1460.0"/>
      <point x="88.0" y="1284.0"/>
      <point x="88.0" y="1008.0" type="curve" smooth="yes"/>
      <point x="88.0" y="743.0"/>
      <point x="265.0" y="652.0"/>
      <point x="460.0" y="585.0" type="curve" smooth="yes"/>
      <point x="655.0" y="518.0"/>
      <point x="864.0" y="480.0"/>
      <point x="864.0" y="290.0" type="curve" smooth="yes"/>
      <point x="864.0" y="162.0"/>
      <point x="785.0" y="56.0"/>
      <point x="538.0" y="56.0" type="curve" smooth="yes"/>
      <point x="424.0" y="56.0"/>
      <point x="325.0" y="90.0"/>
      <point x="195.0" y="158.0" type="curve"/>
      <point x="403.0" y="24.0" type="line"/>
      <point x="101.0" y="462.0" type="line"/>
      <point x="65.0" y="462.0" type="line"/>
      <point x="141.0" y="30.0" type="line"/>
      <point x="285.0" y="-20.0"/>
      <point x="408.0" y="-30.0"/>
      <point x="557.0" y="-30.0" type="curve" smooth="yes"/>
      <point x="930.0" y="-30.0"/>
      <point x="1235.0" y="165.0"/>
      <point x="1235.0" y="499.0" type="curve" smooth="yes"/>
      <point x="1235.0" y="800.0"/>
      <point x="1012.0" y="894.0"/>
      <point x="815.0" y="958.0" type="curve" smooth="yes"/>
      <point x="618.0" y="1022.0"/>
      <point x="446.0" y="1062.0"/>
      <point x="446.0" y="1208.0" type="curve" smooth="yes"/>
      <point x="446.0" y="1304.0"/>
      <point x="497.0" y="1377.0"/>
      <point x="651.0" y="1377.0" type="curve" smooth="yes"/>
      <point x="759.0" y="1377.0"/>
      <point x="862.0" y="1343.0"/>
      <point x="996.0" y="1200.0" type="curve"/>
      <point x="876.0" y="1340.0" type="line"/>
      <point x="1135.0" y="983.0" type="line"/>
      <point x="1171.0" y="992.0" type="line"/>
      <point x="1078.0" y="1510.0" type="line"/>
      <point x="1056.0" y="1510.0" type="line"/>
      <point x="906.0" y="1387.0" type="line"/>
    </contour>
    <contour>
      <point x="565.0" y="-465.0" type="curve" smooth="yes"/>
      <point x="722.0" y="-465.0"/>
      <point x="870.0" y="-364.0"/>
      <point x="870.0" y="-239.0" type="curve" smooth="yes"/>
      <point x="870.0" y="-165.0"/>
      <point x="833.0" y="-102.0"/>
      <point x="625.0" y="-57.0" type="curve"/>
      <point x="580.0" y="-190.0" type="line"/>
      <point x="777.0" y="49.0" type="line"/>
      <point x="703.0" y="49.0" type="line"/>
      <point x="486.0" y="-224.0" type="line"/>
      <point x="486.0" y="-229.0" type="line"/>
      <point x="680.0" y="-260.0"/>
      <point x="712.0" y="-301.0"/>
      <point x="712.0" y="-339.0" type="curve" smooth="yes"/>
      <point x="712.0" y="-383.0"/>
      <point x="681.0" y="-408.0"/>
      <point x="630.0" y="-408.0" type="curve" smooth="yes"/>
      <point x="570.0" y="-408.0"/>
      <point x="493.0" y="-312.0"/>
      <point x="477.0" y="-312.0" type="curve" smooth="yes"/>
      <point x="439.0" y="-312.0"/>
      <point x="421.0" y="-344.0"/>
      <point x="421.0" y="-376.0" type="curve" smooth="yes"/>
      <point x="421.0" y="-426.0"/>
      <point x="460.0" y="-465.0"/>
    </contour>
  </outline>
</glyph>
<glyph name="scedilla" format="2">
  <advance width="964"/>
  <unicode hex="015F"/>
  <outline>
    <contour>
      <point x="516.0" y="1054.0" type="curve" smooth="yes"/>
      <point x="261.0" y="1054.0"/>
      <point x="62.0" y="915.0"/>
      <point x="62.0" y="680.0" type="curve" smooth="yes"/>
      <point x="62.0" y="515.0"/>
      <point x="163.0" y="426.0"/>
      <point x="362.0" y="376.0" type="curve" smooth="yes"/>
      <point x="561.0" y="325.0"/>
      <point x="619.0" y="274.0"/>
      <point x="619.0" y="190.0" type="curve" smooth="yes"/>
      <point x="619.0" y="82.0"/>
      <point x="544.0" y="31.0"/>
      <point x="425.0" y="31.0" type="curve" smooth="yes"/>
      <point x="356.0" y="31.0"/>
      <point x="282.0" y="48.0"/>
      <point x="225.0" y="87.0" type="curve"/>
      <point x="292.0" y="27.0" type="line"/>
      <point x="89.0" y="347.0" type="line"/>
      <point x="51.0" y="347.0" type="line"/>
      <point x="104.0" y="23.0" type="line"/>
      <point x="169.0" y="-8.0"/>
      <point x="269.0" y="-30.0"/>
      <point x="420.0" y="-30.0" type="curve" smooth="yes"/>
      <point x="723.0" y="-30.0"/>
      <point x="920.0" y="131.0"/>
      <point x="920.0" y="360.0" type="curve" smooth="yes"/>
      <point x="920.0" y="538.0"/>
      <point x="841.0" y="660.0"/>
      <point x="611.0" y="719.0" type="curve" smooth="yes"/>
      <point x="381.0" y="778.0"/>
      <point x="358.0" y="822.0"/>
      <point x="358.0" y="881.0" type="curve" smooth="yes"/>
      <point x="358.0" y="957.0"/>
      <point x="415.0" y="992.0"/>
      <point x="532.0" y="992.0" type="curve" smooth="yes"/>
      <point x="601.0" y="992.0"/>
      <point x="670.0" y="970.0"/>
      <point x="745.0" y="911.0" type="curve"/>
      <point x="647.0" y="997.0" type="line"/>
      <point x="830.0" y="726.0" type="line"/>
      <point x="862.0" y="726.0" type="line"/>
      <point x="815.0" y="1008.0" type="line"/>
      <point x="722.0" y="1039.0"/>
      <point x="640.0" y="1054.0"/>
    </contour>
    <contour>
      <point x="390.0" y="-465.0" type="curve" smooth="yes"/>
      <point x="547.0" y="-465.0"/>
      <point x="695.0" y="-364.0"/>
      <point x="695.0" y="-239.0" type="curve" smooth="yes"/>
      <point x="695.0" y="-165.0"/>
      <point x="658.0" y="-102.0"/>
      <point x="450.0" y="-57.0" type="curve"/>
      <point x="405.0" y="-190.0" type="line"/>
      <point x="602.0" y="49.0" type="line"/>
      <point x="528.0" y="49.0" type="line"/>
      <point x="311.0" y="-224.0" type="line"/>
      <point x="311.0" y="-229.0" type="line"/>
      <point x="505.0" y="-260.0"/>
      <point x="537.0" y="-301.0"/>
      <point x="537.0" y="-339.0" type="curve" smooth="yes"/>
      <point x="537.0" y="-383.0"/>
      <point x="506.0" y="-408.0"/>
      <point x="455.0" y="-408.0" type="curve" smooth="yes"/>
      <point x="395.0" y="-408.0"/>
      <point x="318.0" y="-312.0"/>
      <point x="302.0" y="-312.0" type="curve" smooth="yes"/>
      <point x="264.0" y="-312.0"/>
      <point x="246.0" y="-344.0"/>
      <point x="246.0" y="-376.0" type="curve" smooth="yes"/>
      <point x="246.0" y="-426.0"/>
      <point x="285.0" y="-465.0"/>
    </contour>
  </outline>
</glyph>
<glyph name="uni0162" format="2">
  <advance width="1602"/>
  <unicode hex="0162"/>
  <outline>
    <contour>
      <point x="547.0" y="1390.0" type="line"/>
      <point x="547.0" y="94.0" type="line"/>
      <point x="394.0" y="38.0" type="line"/>
      <point x="394.0" y="0.0" type="line"/>
      <point x="1208.0" y="0.0" type="line"/>
      <point x="1208.0" y="38.0" type="line"/>
      <point x="1055.0" y="94.0" type="line"/>
      <point x="1055.0" y="1390.0" type="line"/>
    </contour>
    <contour>
      <point x="1418.0" y="1330.0" type="line"/>
      <point x="1283.0" y="1368.0" type="line"/>
      <point x="1540.0" y="911.0" type="line"/>
      <point x="1577.0" y="918.0" type="line"/>
      <point x="1509.0" y="1512.0" type="line"/>
      <point x="1489.0" y="1512.0" type="line"/>
      <point x="1246.0" y="1398.0" type="line"/>
      <point x="1394.0" y="1430.0" type="line"/>
      <point x="208.0" y="1430.0" type="line"/>
      <point x="356.0" y="1398.0" type="line"/>
      <point x="113.0" y="1512.0" type="line"/>
      <point x="93.0" y="1512.0" type="line"/>
      <point x="25.0" y="918.0" type="line"/>
      <point x="62.0" y="911.0" type="line"/>
      <point x="319.0" y="1368.0" type="line"/>
      <point x="184.0" y="1330.0" type="line"/>
    </contour>
    <contour>
      <point x="691.0" y="-465.0" type="curve" smooth="yes"/>
      <point x="848.0" y="-465.0"/>
      <point x="996.0" y="-364.0"/>
      <point x="996.0" y="-239.0" type="curve" smooth="yes"/>
      <point x="996.0" y="-165.0"/>
      <point x="959.0" y="-102.0"/>
      <point x="751.0" y="-57.0" type="curve"/>
      <point x="706.0" y="-190.0" type="line"/>
      <point x="903.0" y="49.0" type="line"/>
      <point x="829.0" y="49.0" type="line"/>
      <point x="612.0" y="-224.0" type="line"/>
      <point x="612.0" y="-229.0" type="line"/>
      <point x="806.0" y="-260.0"/>
      <point x="838.0" y="-301.0"/>
      <point x="838.0" y="-339.0" type="curve" smooth="yes"/>
      <point x="838.0" y="-383.0"/>
      <point x="807.0" y="-408.0"/>
      <point x="756.0" y="-408.0" type="curve" smooth="yes"/>
      <point x="696.0" y="-408.0"/>
      <point x="619.0" y="-312.0"/>
      <point x="603.0" y="-312.0" type="curve" smooth="yes"/>
      <point x="565.0" y="-312.0"/>
      <point x="547.0" y="-344.0"/>
      <point x="547.0" y="-376.0" type="curve" smooth="yes"/>
      <point x="547.0" y="-426.0"/>
      <point x="586.0" y="-465.0"/>
    </contour>
  </outline>
</glyph>
<glyph name="Uogonek" format="2">
  <advance width="1671"/>
  <unicode hex="0172"/>
  <outline>
    <contour>
      <point x="1428" y="600" type="line" smooth="yes"/>
      <point x="1428" y="292"/>
      <point x="1282" y="198"/>
      <point x="1035" y="198" type="curve" smooth="yes"/>
      <point x="791" y="198"/>
      <point x="662" y="305"/>
      <point x="662" y="581" type="curve" smooth="yes"/>
      <point x="662" y="1345" type="line"/>
      <point x="805" y="1391" type="line"/>
      <point x="805" y="1430" type="line"/>
      <point x="11" y="1430" type="line"/>
      <point x="11" y="1391" type="line"/>
      <point x="154" y="1345" type="line"/>
      <point x="154" y="585" type="line" smooth="yes"/>
      <point x="154" y="167"/>
      <point x="394" y="-30"/>
      <point x="869" y="-30" type="curve" smooth="yes"/>
      <point x="1270" y="-30"/>
      <point x="1517" y="154"/>
      <point x="1517" y="585" type="curve" smooth="yes"/>
      <point x="1517" y="1345" type="line"/>
      <point x="1660" y="1391" type="line"/>
      <point x="1660" y="1430" type="line"/>
      <point x="1281" y="1430" type="line"/>
      <point x="1281" y="1391" type="line"/>
      <point x="1428" y="1345" type="line"/>
    </contour>
    <contour>
      <point x="1026" y="-21" type="curve" smooth="yes"/>
      <point x="1120" y="97" type="line"/>
      <point x="1087" y="97" type="line"/>
      <point x="933" y="-43" type="line" smooth="yes"/>
      <point x="773" y="-188"/>
      <point x="741" y="-254"/>
      <point x="741" y="-321" type="curve" smooth="yes"/>
      <point x="741" y="-401"/>
      <point x="788" y="-465"/>
      <point x="906" y="-465" type="curve" smooth="yes"/>
      <point x="981" y="-465"/>
      <point x="1041" y="-435"/>
      <point x="1149" y="-307" type="curve"/>
      <point x="1134" y="-282" type="line"/>
      <point x="1071" y="-329"/>
      <point x="1035" y="-332"/>
      <point x="1006" y="-332" type="curve" smooth="yes"/>
      <point x="943" y="-332"/>
      <point x="905" y="-300"/>
      <point x="905" y="-248" type="curve" smooth="yes"/>
      <point x="905" y="-203"/>
      <point x="921" y="-152"/>
    </contour>
  </outline>
</glyph>
<glyph name="uogonek" format="2">
  <advance width="1318"/>
  <unicode hex="0173"/>
  <outline>
    <contour>
      <point x="553.0" y="350.0" type="curve" smooth="yes"/>
      <point x="553.0" y="924.0" type="line"/>
      <point x="558.0" y="1039.0" type="line"/>
      <point x="10.0" y="1009.0" type="line"/>
      <point x="10.0" y="976.0" type="line"/>
      <point x="115.0" y="901.0" type="line"/>
      <point x="115.0" y="252.0" type="line" smooth="yes"/>
      <point x="115.0" y="81.0"/>
      <point x="213.0" y="-20.0"/>
      <point x="382.0" y="-20.0" type="curve" smooth="yes"/>
      <point x="536.0" y="-20.0"/>
      <point x="594.0" y="7.0"/>
      <point x="785.0" y="253.0" type="curve"/>
      <point x="785.0" y="279.0" type="line"/>
      <point x="727.0" y="252.0"/>
      <point x="689.0" y="243.0"/>
      <point x="651.0" y="243.0" type="curve" smooth="yes"/>
      <point x="585.0" y="243.0"/>
      <point x="553.0" y="268.0"/>
    </contour>
    <contour>
      <point x="770.0" y="-43.0" type="line"/>
      <point x="799.0" y="-43.0" type="line"/>
      <point x="1318.0" y="59.0" type="line"/>
      <point x="1318.0" y="90.0" type="line"/>
      <point x="1276.0" y="118.40287769784172"/>
      <point x="1203.0" y="167.76978417266187"/>
      <point x="1179.0" y="184.0" type="curve"/>
      <point x="1179.0" y="921.0" type="line"/>
      <point x="1195.0" y="1039.0" type="line"/>
      <point x="646.0" y="1009.0" type="line"/>
      <point x="646.0" y="976.0" type="line"/>
      <point x="741.0" y="904.0" type="line"/>
      <point x="741.0" y="151.0" type="line"/>
    </contour>
    <contour>
      <point x="833.0" y="-42.0" type="curve" smooth="yes"/>
      <point x="904.0" y="82.0" type="line"/>
      <point x="863.0" y="82.0" type="line"/>
      <point x="745.0" y="-65.0" type="line" smooth="yes"/>
      <point x="630.0" y="-208.0"/>
      <point x="609.0" y="-263.0"/>
      <point x="609.0" y="-321.0" type="curve" smooth="yes"/>
      <point x="609.0" y="-401.0"/>
      <point x="656.0" y="-465.0"/>
      <point x="774.0" y="-465.0" type="curve" smooth="yes"/>
      <point x="849.0" y="-465.0"/>
      <point x="909.0" y="-435.0"/>
      <point x="1017.0" y="-307.0" type="curve"/>
      <point x="1002.0" y="-282.0" type="line"/>
      <point x="939.0" y="-329.0"/>
      <point x="903.0" y="-332.0"/>
      <point x="874.0" y="-332.0" type="curve" smooth="yes"/>
      <point x="806.0" y="-332.0"/>
      <point x="763.0" y="-294.0"/>
      <point x="763.0" y="-238.0" type="curve" smooth="yes"/>
      <point x="763.0" y="-201.0"/>
      <point x="769.0" y="-154.0"/>
    </contour>
  </outline>
</glyph>
<glyph name="tildecomb" format="2">
  <unicode hex="0303"/>
  <anchor x="0" y="1024.0" name="_top"/>
  <anchor x="0" y="1376.0" name="top"/>
  <outline>
    <contour>
      <point x="324.0" y="1450.0" type="curve"/>
      <point x="265.0" y="1450.0" type="line"/>
      <point x="235.0" y="1351.0"/>
      <point x="210.0" y="1327.0"/>
      <point x="151.0" y="1327.0" type="curve" smooth="yes"/>
      <point x="61.0" y="1327.0"/>
      <point x="-15.0" y="1460.0"/>
      <point x="-120.0" y="1460.0" type="curve" smooth="yes"/>
      <point x="-217.0" y="1460.0"/>
      <point x="-276.0" y="1406.0"/>
      <point x="-324.0" y="1152.0" type="curve"/>
      <point x="-265.0" y="1152.0" type="line"/>
      <point x="-235.0" y="1251.0"/>
      <point x="-210.0" y="1275.0"/>
      <point x="-151.0" y="1275.0" type="curve" smooth="yes"/>
      <point x="-61.0" y="1275.0"/>
      <point x="15.0" y="1142.0"/>
      <point x="120.0" y="1142.0" type="curve" smooth="yes"/>
      <point x="217.0" y="1142.0"/>
      <point x="276.0" y="1196.0"/>
    </contour>
  </outline>
</glyph>
<glyph name="uni0307" format="2">
  <unicode hex="0307"/>
  <anchor x="0" y="1024.0" name="_top"/>
  <anchor x="0" y="1376.0" name="top"/>
  <anchor x="0" y="1301.0" name="_mid"/>
  <outline>
    <contour>
      <point x="0.0" y="1152.0" type="curve" smooth="yes"/>
      <point x="91.0" y="1152.0"/>
      <point x="154.0" y="1216.0"/>
      <point x="154.0" y="1301.0" type="curve" smooth="yes"/>
      <point x="154.0" y="1385.0"/>
      <point x="91.0" y="1451.0"/>
      <point x="0.0" y="1451.0" type="curve" smooth="yes"/>
      <point x="-91.0" y="1451.0"/>
      <point x="-154.0" y="1385.0"/>
      <point x="-154.0" y="1301.0" type="curve" smooth="yes"/>
      <point x="-154.0" y="1216.0"/>
      <point x="-91.0" y="1152.0"/>
    </contour>
  </outline>
</glyph>
<glyph name="uni030C" format="2">
  <unicode hex="030C"/>
  <anchor x="0" y="1024.0" name="_top"/>
  <anchor x="0" y="1464.0" name="top"/>
  <outline>
    <contour>
      <point x="60.0" y="1254.0" type="line"/>
      <point x="-281.0" y="1464.0" type="line"/>
      <point x="-341.0" y="1464.0" type="line"/>
      <point x="-110.0" y="1138.0" type="line"/>
      <point x="110.0" y="1138.0" type="line"/>
      <point x="341.0" y="1464.0" type="line"/>
      <point x="281.0" y="1464.0" type="line"/>
      <point x="-60.0" y="1254.0" type="line"/>
    </contour>
  </outline>
</glyph>
<glyph name="uni0311" format="2">
  <unicode hex="0311"/>
  <anchor x="0" y="1024.0" name="_top"/>
  <anchor x="0" y="1464.0" name="top"/>
  <outline>
    <contour>
      <point x="0.0" y="1299.0" type="curve" smooth="yes"/>
      <point x="132.0" y="1299.0"/>
      <point x="229.0" y="1249.0"/>
      <point x="263.0" y="1138.0" type="curve"/>
      <point x="329.0" y="1138.0" type="line"/>
      <point x="267.0" y="1393.0"/>
      <point x="188.0" y="1474.0"/>
      <point x="0.0" y="1474.0" type="curve" smooth="yes"/>
      <point x="-188.0" y="1474.0"/>
      <point x="-267.0" y="1393.0"/>
      <point x="-329.0" y="1138.0" type="curve"/>
      <point x="-263.0" y="1138.0" type="line"/>
      <point x="-229.0" y="1249.0"/>
      <point x="-132.0" y="1299.0"/>
    </contour>
  </outline>
</glyph>
<glyph name="quoteright" format="2">
  <advance width="545"/>
  <unicode hex="2019"/>
  <outline>
    <contour>
      <point x="66.0" y="861.0" type="curve"/>
      <point x="87.0" y="815.0" type="line"/>
      <point x="392.0" y="922.0"/>
      <point x="503.0" y="1060.0"/>
      <point x="503.0" y="1232.0" type="curve" smooth="yes"/>
      <point x="503.0" y="1376.0"/>
      <point x="417.0" y="1454.0"/>
      <point x="294.0" y="1454.0" type="curve" smooth="yes"/>
      <point x="174.0" y="1454.0"/>
      <point x="90.0" y="1367.0"/>
      <point x="90.0" y="1254.0" type="curve" smooth="yes"/>
      <point x="90.0" y="1233.0"/>
      <point x="276.0" y="1195.0"/>
      <point x="276.0" y="1070.0" type="curve" smooth="yes"/>
      <point x="276.0" y="985.0"/>
      <point x="224.0" y="921.0"/>
    </contour>
  </outline>
</glyph>
<glyph name="quotesinglbase" format="2">
  <advance width="537"/>
  <unicode hex="201A"/>
  <outline>
    <contour>
      <point x="31.0" y="-237.0" type="curve"/>
      <point x="52.0" y="-283.0" type="line"/>
      <point x="357.0" y="-176.0"/>
      <point x="468.0" y="-38.0"/>
      <point x="468.0" y="134.0" type="curve" smooth="yes"/>
      <point x="468.0" y="278.0"/>
      <point x="382.0" y="356.0"/>
      <point x="259.0" y="356.0" type="curve" smooth="yes"/>
      <point x="139.0" y="356.0"/>
      <point x="55.0" y="269.0"/>
      <point x="55.0" y="156.0" type="curve" smooth="yes"/>
      <point x="55.0" y="135.0"/>
      <point x="241.0" y="97.0"/>
      <point x="241.0" y="-28.0" type="curve" smooth="yes"/>
      <point x="241.0" y="-113.0"/>
      <point x="189.0" y="-177.0"/>
    </contour>
  </outline>
</glyph>
<glyph name="guilsinglright" format="2">
  <advance width="622"/>
  <unicode hex="203A"/>
  <outline>
    <contour>
      <point x="307.0" y="413.0" type="line"/>
      <point x="307.0" y="633.0" type="line"/>
      <point x="87.0" y="81.0" type="line"/>
      <point x="109.0" y="65.0" type="line"/>
      <point x="552.0" y="513.0" type="line"/>
      <point x="552.0" y="533.0" type="line"/>
      <point x="109.0" y="981.0" type="line"/>
      <point x="87.0" y="965.0" type="line"/>
    </contour>
  </outline>
</glyph>
<glyph name="zerosuperior" format="2">
  <advance width="849"/>
  <unicode hex="2070"/>
  <outline>
    <contour>
      <point x="432.0" y="707.0" type="curve" smooth="yes"/>
      <point x="369.0" y="707.0"/>
      <point x="320.0" y="790.0"/>
      <point x="320.0" y="1073.0" type="curve" smooth="yes"/>
      <point x="320.0" y="1287.0"/>
      <point x="352.0" y="1385.0"/>
      <point x="417.0" y="1385.0" type="curve" smooth="yes"/>
      <point x="480.0" y="1385.0"/>
      <point x="529.0" y="1302.0"/>
      <point x="529.0" y="1019.0" type="curve" smooth="yes"/>
      <point x="529.0" y="805.0"/>
      <point x="497.0" y="707.0"/>
    </contour>
    <contour>
      <point x="423.0" y="642.0" type="curve" smooth="yes"/>
      <point x="649.0" y="642.0"/>
      <point x="804.0" y="806.0"/>
      <point x="804.0" y="1046.0" type="curve" smooth="yes"/>
      <point x="804.0" y="1286.0"/>
      <point x="650.0" y="1450.0"/>
      <point x="426.0" y="1450.0" type="curve" smooth="yes"/>
      <point x="200.0" y="1450.0"/>
      <point x="45.0" y="1286.0"/>
      <point x="45.0" y="1046.0" type="curve" smooth="yes"/>
      <point x="45.0" y="806.0"/>
      <point x="199.0" y="642.0"/>
    </contour>
  </outline>
</glyph>
<glyph name="peseta" format="2">
  <advance width="1400"/>
  <unicode hex="20A7"/>
  <outline>
    <contour>
      <point x="342.0" y="75.0" type="line"/>
      <point x="342.0" y="1430.0" type="line"/>
      <point x="-18.0" y="1430.0" type="line"/>
      <point x="-18.0" y="1397.0" type="line"/>
      <point x="65.0" y="1360.0" type="line"/>
      <point x="65.0" y="70.0" type="line"/>
      <point x="-18.0" y="33.0" type="line"/>
      <point x="-18.0" y="0.0" type="line"/>
      <point x="433.0" y="0.0" type="line"/>
      <point x="433.0" y="33.0" type="line"/>
    </contour>
    <contour>
      <point x="699.0" y="165.0" type="line" smooth="yes"/>
      <point x="699.0" y="8.0"/>
      <point x="757.0" y="-17.0"/>
      <point x="848.0" y="-17.0" type="curve" smooth="yes"/>
      <point x="895.0" y="-17.0"/>
      <point x="953.0" y="-3.0"/>
      <point x="1050.0" y="68.0" type="curve"/>
      <point x="1050.0" y="114.0" type="line"/>
      <point x="1028.0" y="104.0"/>
      <point x="1006.0" y="101.0"/>
      <point x="986.0" y="101.0" type="curve" smooth="yes"/>
      <point x="962.0" y="101.0"/>
      <point x="947.0" y="117.0"/>
      <point x="947.0" y="167.0" type="curve" smooth="yes"/>
      <point x="947.0" y="1128.0" type="line"/>
      <point x="914.0" y="1128.0" type="line"/>
      <point x="873.0" y="1012.0"/>
      <point x="732.0" y="898.0"/>
      <point x="664.0" y="866.0" type="curve"/>
      <point x="664.0" y="830.0" type="line"/>
      <point x="699.0" y="830.0" type="line"/>
    </contour>
    <contour>
      <point x="822.0" y="830.0" type="line"/>
      <point x="1010.0" y="830.0" type="line"/>
      <point x="1028.0" y="943.0" type="line"/>
      <point x="922.0" y="943.0" type="line"/>
    </contour>
    <contour>
      <point x="1284.0" y="966.0" type="curve" smooth="yes"/>
      <point x="1151.0" y="966.0"/>
      <point x="1059.0" y="874.0"/>
      <point x="1059.0" y="699.0" type="curve" smooth="yes"/>
      <point x="1059.0" y="359.0"/>
      <point x="1226.0" y="393.0"/>
      <point x="1226.0" y="152.0" type="curve" smooth="yes"/>
      <point x="1226.0" y="64.0"/>
      <point x="1194.0" y="50.0"/>
      <point x="1144.0" y="50.0" type="curve" smooth="yes"/>
      <point x="1139.0" y="50.0"/>
      <point x="1135.0" y="50.0"/>
      <point x="1130.0" y="50.0" type="curve"/>
      <point x="1195.0" y="15.0" type="line"/>
      <point x="1091.0" y="277.0" type="line"/>
      <point x="1067.0" y="277.0" type="line"/>
      <point x="1089.0" y="5.0" type="line"/>
      <point x="1122.0" y="-10.0"/>
      <point x="1165.0" y="-16.0"/>
      <point x="1200.0" y="-16.0" type="curve" smooth="yes"/>
      <point x="1336.0" y="-16.0"/>
      <point x="1429.0" y="64.0"/>
      <point x="1429.0" y="259.0" type="curve" smooth="yes"/>
      <point x="1429.0" y="610.0"/>
      <point x="1256.0" y="615.0"/>
      <point x="1256.0" y="808.0" type="curve" smooth="yes"/>
      <point x="1256.0" y="872.0"/>
      <point x="1277.0" y="896.0"/>
      <point x="1338.0" y="896.0" type="curve" smooth="yes"/>
      <point x="1349.0" y="896.0"/>
      <point x="1358.0" y="892.0"/>
      <point x="1366.0" y="886.0" type="curve"/>
      <point x="1280.0" y="948.0" type="line"/>
      <point x="1377.0" y="678.0" type="line"/>
      <point x="1398.0" y="678.0" type="line"/>
      <point x="1390.0" y="941.0" type="line"/>
      <point x="1360.0" y="956.0"/>
      <point x="1327.0" y="966.0"/>
    </contour>
    <contour>
      <point x="333.0" y="1350.0" type="line" smooth="yes"/>
      <point x="402.0" y="1350.0"/>
      <point x="413.0" y="1274.0"/>
      <point x="413.0" y="1051.0" type="curve" smooth="yes"/>
      <point x="413.0" y="770.0"/>
      <point x="389.0" y="700.0"/>
      <point x="335.0" y="700.0" type="curve" smooth="yes"/>
      <point x="305.0" y="700.0" type="line"/>
      <point x="278.0" y="619.0" type="line"/>
      <point x="371.0" y="619.0" type="line" smooth="yes"/>
      <point x="567.0" y="619.0"/>
      <point x="653.0" y="791.0"/>
      <point x="653.0" y="1036.0" type="curve" smooth="yes"/>
      <point x="653.0" y="1291.0"/>
      <point x="560.0" y="1430.0"/>
      <point x="378.0" y="1430.0" type="curve" smooth="yes"/>
      <point x="278.0" y="1430.0" type="line"/>
      <point x="305.0" y="1350.0" type="line"/>
    </contour>
  </outline>
</glyph>
<glyph name="uni27E8" format="2">
  <advance width="1150"/>
  <unicode hex="27E8"/>
  <outline>
    <contour>
      <point x="320.0" y="692.0" type="line"/>
      <point x="914.0" y="1430.0" type="line"/>
      <point x="799.0" y="1430.0" type="line"/>
      <point x="225.0" y="720.0" type="line"/>
      <point x="225.0" y="708.0" type="line"/>
      <point x="799.0" y="0.0" type="line"/>
      <point x="914.0" y="0.0" type="line"/>
      <point x="318.0" y="740.0" type="line"/>
    </contour>
  </outline>
</glyph>
<glyph name="fi" format="2">
  <advance width="1421"/>
  <unicode hex="FB01"/>
  <outline>
    <contour>
      <point x="928.0" y="843.0" type="line"/>
      <point x="868.0" y="903.0" type="line"/>
      <point x="868.0" y="68.0" type="line"/>
      <point x="782.0" y="33.0" type="line"/>
      <point x="782.0" y="0.0" type="line"/>
      <point x="1381.0" y="0.0" type="line"/>
      <point x="1381.0" y="33.0" type="line"/>
      <point x="1306.0" y="65.0" type="line"/>
      <point x="1306.0" y="841.0" type="line"/>
      <point x="1306.0" y="1054.0" type="line"/>
      <point x="1279.0" y="1054.0" type="line"/>
      <point x="908.0" y="1024.0" type="line"/>
      <point x="407.0" y="1024.0" type="line"/>
      <point x="207.0" y="1056.0" type="line"/>
      <point x="11.0" y="961.0" type="line"/>
      <point x="11.0" y="931.0" type="line"/>
      <point x="192.0" y="809.0" type="line"/>
      <point x="224.0" y="843.0" type="line"/>
    </contour>
    <contour>
      <point x="614.0" y="68.0" type="line"/>
      <point x="614.0" y="1272.0" type="line" smooth="yes"/>
      <point x="614.0" y="1361.0"/>
      <point x="652.0" y="1404.0"/>
      <point x="731.0" y="1404.0" type="curve" smooth="yes"/>
      <point x="870.0" y="1404.0"/>
      <point x="1009.0" y="1176.0"/>
      <point x="1046.0" y="1176.0" type="curve" smooth="yes"/>
      <point x="1116.0" y="1176.0"/>
      <point x="1190.0" y="1241.0"/>
      <point x="1190.0" y="1321.0" type="curve" smooth="yes"/>
      <point x="1190.0" y="1424.0"/>
      <point x="1091.0" y="1494.0"/>
      <point x="830.0" y="1494.0" type="curve" smooth="yes"/>
      <point x="410.0" y="1494.0"/>
      <point x="176.0" y="1282.0"/>
      <point x="176.0" y="949.0" type="curve" smooth="yes"/>
      <point x="176.0" y="68.0" type="line"/>
      <point x="90.0" y="33.0" type="line"/>
      <point x="90.0" y="0.0" type="line"/>
      <point x="700.0" y="0.0" type="line"/>
      <point x="700.0" y="33.0" type="line"/>
    </contour>
  </outline>
</glyph>
<glyph name="f_f_i" format="2">
  <advance width="2113"/>
  <unicode hex="FB03"/>
  <outline>
    <contour>
      <point x="1616.0" y="843.0" type="line"/>
      <point x="1560.0" y="893.0" type="line"/>
      <point x="1560.0" y="68.0" type="line"/>
      <point x="1474.0" y="33.0" type="line"/>
      <point x="1474.0" y="0.0" type="line"/>
      <point x="2073.0" y="0.0" type="line"/>
      <point x="2073.0" y="33.0" type="line"/>
      <point x="1998.0" y="65.0" type="line"/>
      <point x="1998.0" y="856.0" type="line"/>
      <point x="1998.0" y="1054.0" type="line"/>
      <point x="1971.0" y="1054.0" type="line"/>
      <point x="1600.0" y="1024.0" type="line"/>
      <point x="407.0" y="1024.0" type="line"/>
      <point x="207.0" y="1056.0" type="line"/>
      <point x="11.0" y="961.0" type="line"/>
      <point x="11.0" y="931.0" type="line"/>
      <point x="192.0" y="809.0" type="line"/>
      <point x="224.0" y="843.0" type="line"/>
    </contour>
    <contour>
      <point x="720.0" y="0.0" type="line"/>
      <point x="720.0" y="33.0" type="line"/>
      <point x="614.0" y="68.0" type="line"/>
      <point x="614.0" y="1228.0" type="line" smooth="yes"/>
      <point x="614.0" y="1332.0"/>
      <point x="646.0" y="1364.0"/>
      <point x="726.0" y="1364.0" type="curve" smooth="yes"/>
      <point x="833.0" y="1364.0"/>
      <point x="896.0" y="1273.0"/>
      <point x="931.0" y="1191.0" type="curve"/>
      <point x="1134.0" y="1359.0" type="line"/>
      <point x="1062.0" y="1414.0"/>
      <point x="967.0" y="1460.0"/>
      <point x="763.0" y="1460.0" type="curve" smooth="yes"/>
      <point x="393.0" y="1460.0"/>
      <point x="176.0" y="1248.0"/>
      <point x="176.0" y="915.0" type="curve" smooth="yes"/>
      <point x="176.0" y="68.0" type="line"/>
      <point x="90.0" y="33.0" type="line"/>
      <point x="90.0" y="0.0" type="line"/>
    </contour>
    <contour>
      <point x="1306.0" y="68.0" type="line"/>
      <point x="1306.0" y="1272.0" type="line" smooth="yes"/>
      <point x="1306.0" y="1361.0"/>
      <point x="1344.0" y="1404.0"/>
      <point x="1423.0" y="1404.0" type="curve" smooth="yes"/>
      <point x="1562.0" y="1404.0"/>
      <point x="1701.0" y="1176.0"/>
      <point x="1738.0" y="1176.0" type="curve" smooth="yes"/>
      <point x="1808.0" y="1176.0"/>
      <point x="1882.0" y="1241.0"/>
      <point x="1882.0" y="1321.0" type="curve" smooth="yes"/>
      <point x="1882.0" y="1424.0"/>
      <point x="1783.0" y="1494.0"/>
      <point x="1522.0" y="1494.0" type="curve" smooth="yes"/>
      <point x="1102.0" y="1494.0"/>
      <point x="868.0" y="1282.0"/>
      <point x="868.0" y="949.0" type="curve" smooth="yes"/>
      <point x="868.0" y="68.0" type="line"/>
      <point x="782.0" y="33.0" type="line"/>
      <point x="782.0" y="0.0" type="line"/>
      <point x="1392.0" y="0.0" type="line"/>
      <point x="1392.0" y="33.0" type="line"/>
    </contour>
  </outline>
</glyph>
<glyph name="dollar.lf.1" format="2">
  <advance width="1221"/>
  <outline>
    <contour>
      <point x="498.0" y="-30.0" type="curve" smooth="yes"/>
      <point x="906.0" y="-30.0"/>
      <point x="1142.0" y="182.0"/>
      <point x="1142.0" y="503.0" type="curve" smooth="yes"/>
      <point x="1142.0" y="705.0"/>
      <point x="1027.0" y="863.0"/>
      <point x="697.0" y="945.0" type="curve" smooth="yes"/>
      <point x="422.0" y="1013.0"/>
      <point x="365.0" y="1084.0"/>
      <point x="365.0" y="1191.0" type="curve" smooth="yes"/>
      <point x="365.0" y="1306.0"/>
      <point x="440.0" y="1380.0"/>
      <point x="614.0" y="1380.0" type="curve" smooth="yes"/>
      <point x="757.0" y="1380.0"/>
      <point x="913.0" y="1130.0"/>
      <point x="954.0" y="1130.0" type="curve" smooth="yes"/>
      <point x="1041.0" y="1130.0"/>
      <point x="1095.0" y="1181.0"/>
      <point x="1095.0" y="1263.0" type="curve" smooth="yes"/>
      <point x="1095.0" y="1372.0"/>
      <point x="979.0" y="1460.0"/>
      <point x="696.0" y="1460.0" type="curve" smooth="yes"/>
      <point x="323.0" y="1460.0"/>
      <point x="95.0" y="1236.0"/>
      <point x="95.0" y="958.0" type="curve" smooth="yes"/>
      <point x="95.0" y="739.0"/>
      <point x="197.0" y="598.0"/>
      <point x="504.0" y="522.0" type="curve" smooth="yes"/>
      <point x="802.0" y="448.0"/>
      <point x="870.0" y="391.0"/>
      <point x="870.0" y="269.0" type="curve" smooth="yes"/>
      <point x="870.0" y="134.0"/>
      <point x="768.0" y="50.0"/>
      <point x="597.0" y="50.0" type="curve" smooth="yes"/>
      <point x="407.0" y="50.0"/>
      <point x="262.0" y="319.0"/>
      <point x="222.0" y="319.0" type="curve" smooth="yes"/>
      <point x="137.0" y="319.0"/>
      <point x="81.0" y="256.0"/>
      <point x="81.0" y="173.0" type="curve" smooth="yes"/>
      <point x="81.0" y="57.0"/>
      <point x="195.0" y="-30.0"/>
    </contour>
    <contour>
      <point x="562.0" y="1404.0" type="line"/>
      <point x="562.0" y="1638.0" type="line"/>
      <point x="489.0" y="1638.0" type="line"/>
      <point x="489.0" y="1404.0" type="line"/>
    </contour>
    <contour>
      <point x="750.0" y="1404.0" type="line"/>
      <point x="750.0" y="1638.0" type="line"/>
      <point x="677.0" y="1638.0" type="line"/>
      <point x="677.0" y="1404.0" type="line"/>
    </contour>
    <contour>
      <point x="489.0" y="18.0" type="line"/>
      <point x="489.0" y="-208.0" type="line"/>
      <point x="562.0" y="-208.0" type="line"/>
      <point x="562.0" y="18.0" type="line"/>
    </contour>
    <contour>
      <point x="677.0" y="18.0" type="line"/>
      <point x="677.0" y="-208.0" type="line"/>
      <point x="750.0" y="-208.0" type="line"/>
      <point x="750.0" y="18.0" type="line"/>
    </contour>
  </outline>
</glyph>
<glyph name="dollar.lf" format="2">
  <advance width="1240"/>
  <outline>
    <contour>
      <point x="498.0" y="-208.0" type="line"/>
      <point x="571.0" y="-208.0" type="line"/>
      <point x="571.0" y="1638.0" type="line"/>
      <point x="498.0" y="1638.0" type="line"/>
    </contour>
    <contour>
      <point x="686.0" y="-208.0" type="line"/>
      <point x="759.0" y="-208.0" type="line"/>
      <point x="759.0" y="1638.0" type="line"/>
      <point x="686.0" y="1638.0" type="line"/>
    </contour>
    <contour>
      <point x="507.0" y="-30.0" type="curve" smooth="yes"/>
      <point x="915.0" y="-30.0"/>
      <point x="1151.0" y="182.0"/>
      <point x="1151.0" y="503.0" type="curve" smooth="yes"/>
      <point x="1151.0" y="705.0"/>
      <point x="1036.0" y="863.0"/>
      <point x="706.0" y="945.0" type="curve" smooth="yes"/>
      <point x="431.0" y="1013.0"/>
      <point x="374.0" y="1084.0"/>
      <point x="374.0" y="1191.0" type="curve" smooth="yes"/>
      <point x="374.0" y="1306.0"/>
      <point x="449.0" y="1380.0"/>
      <point x="623.0" y="1380.0" type="curve" smooth="yes"/>
      <point x="766.0" y="1380.0"/>
      <point x="922.0" y="1130.0"/>
      <point x="963.0" y="1130.0" type="curve" smooth="yes"/>
      <point x="1050.0" y="1130.0"/>
      <point x="1104.0" y="1181.0"/>
      <point x="1104.0" y="1263.0" type="curve" smooth="yes"/>
      <point x="1104.0" y="1372.0"/>
      <point x="988.0" y="1460.0"/>
      <point x="705.0" y="1460.0" type="curve" smooth="yes"/>
      <point x="332.0" y="1460.0"/>
      <point x="104.0" y="1236.0"/>
      <point x="104.0" y="958.0" type="curve" smooth="yes"/>
      <point x="104.0" y="739.0"/>
      <point x="206.0" y="598.0"/>
      <point x="513.0" y="522.0" type="curve" smooth="yes"/>
      <point x="811.0" y="448.0"/>
      <point x="879.0" y="391.0"/>
      <point x="879.0" y="269.0" type="curve" smooth="yes"/>
      <point x="879.0" y="134.0"/>
      <point x="777.0" y="50.0"/>
      <point x="606.0" y="50.0" type="curve" smooth="yes"/>
      <point x="416.0" y="50.0"/>
      <point x="271.0" y="319.0"/>
      <point x="231.0" y="319.0" type="curve" smooth="yes"/>
      <point x="146.0" y="319.0"/>
      <point x="90.0" y="256.0"/>
      <point x="90.0" y="173.0" type="curve" smooth="yes"/>
      <point x="90.0" y="57.0"/>
      <point x="204.0" y="-30.0"/>
    </contour>
  </outline>
</glyph>
<glyph name="dong.lf" format="2">
  <advance width="1457"/>
  <outline>
    <contour>
      <point x="1362.0" y="-268.0" type="line"/>
      <point x="123.0" y="-268.0" type="line"/>
      <point x="123.0" y="-345.0" type="line"/>
      <point x="1362.0" y="-345.0" type="line"/>
    </contour>
    <contour>
      <point x="776.0" y="838.0" type="curve" smooth="yes"/>
      <point x="776.0" y="151.0" type="line"/>
      <point x="805.0" y="-43.0" type="line"/>
      <point x="834.0" y="-43.0" type="line"/>
      <point x="1353.0" y="59.0" type="line"/>
      <point x="1353.0" y="90.0" type="line"/>
      <point x="1313.0" y="117.05035971223022"/>
      <point x="1237.0" y="168.44604316546761"/>
      <point x="1214.0" y="184.0" type="curve"/>
      <point x="1214.0" y="1276.0" type="line"/>
      <point x="1214.0" y="1494.0" type="line"/>
      <point x="1187.0" y="1494.0" type="line"/>
      <point x="614.0" y="1367.0" type="line"/>
      <point x="614.0" y="1334.0" type="line"/>
      <point x="669.0" y="1277.9814814814815"/>
      <point x="753.0" y="1192.4259259259259"/>
      <point x="776.0" y="1169.0" type="curve"/>
      <point x="776.0" y="976.0" type="line"/>
      <point x="1076.0" y="976.0" type="line"/>
      <point x="957.0" y="1031.0"/>
      <point x="832.0" y="1054.0"/>
      <point x="700.0" y="1054.0" type="curve" smooth="yes"/>
      <point x="347.0" y="1054.0"/>
      <point x="83.0" y="845.0"/>
      <point x="83.0" y="463.0" type="curve" smooth="yes"/>
      <point x="83.0" y="167.0"/>
      <point x="246.0" y="-30.0"/>
      <point x="504.0" y="-30.0" type="curve" smooth="yes"/>
      <point x="625.0" y="-30.0"/>
      <point x="683.0" y="0.0"/>
      <point x="828.0" y="192.0" type="curve"/>
      <point x="828.0" y="226.0" type="line"/>
      <point x="800.0" y="197.0"/>
      <point x="756.0" y="181.0"/>
      <point x="707.0" y="181.0" type="curve" smooth="yes"/>
      <point x="585.0" y="181.0"/>
      <point x="533.0" y="265.0"/>
      <point x="533.0" y="564.0" type="curve" smooth="yes"/>
      <point x="533.0" y="890.0"/>
      <point x="590.0" y="981.0"/>
      <point x="677.0" y="981.0" type="curve" smooth="yes"/>
      <point x="746.0" y="981.0"/>
      <point x="776.0" y="931.0"/>
    </contour>
    <contour>
      <point x="522.0" y="1104.0" type="line"/>
      <point x="1376.0" y="1104.0" type="line"/>
      <point x="1376.0" y="1186.0" type="line"/>
      <point x="522.0" y="1186.0" type="line"/>
    </contour>
  </outline>
</glyph>
<glyph name="numbersign.lf" format="2">
  <advance width="1396"/>
  <outline>
    <contour>
      <point x="827.0" y="0.0" type="line"/>
      <point x="1145.0" y="1430.0" type="line"/>
      <point x="1063.0" y="1430.0" type="line"/>
      <point x="745.0" y="0.0" type="line"/>
    </contour>
    <contour>
      <point x="374.0" y="0.0" type="line"/>
      <point x="692.0" y="1430.0" type="line"/>
      <point x="611.0" y="1430.0" type="line"/>
      <point x="293.0" y="0.0" type="line"/>
    </contour>
    <contour>
      <point x="1263.0" y="495.0" type="line"/>
      <point x="58.0" y="495.0" type="line"/>
      <point x="58.0" y="412.0" type="line"/>
      <point x="1263.0" y="412.0" type="line"/>
    </contour>
    <contour>
      <point x="1329.0" y="1024.0" type="line"/>
      <point x="176.0" y="1024.0" type="line"/>
      <point x="176.0" y="941.0" type="line"/>
      <point x="1329.0" y="941.0" type="line"/>
    </contour>
  </outline>
</glyph>
<glyph name="one.lf" format="2">
  <advance width="1020"/>
  <outline>
    <contour>
      <point x="321.0" y="88.0" type="line"/>
      <point x="98.0" y="37.0" type="line"/>
      <point x="98.0" y="0.0" type="line"/>
      <point x="1025.0" y="0.0" type="line"/>
      <point x="1025.0" y="37.0" type="line"/>
      <point x="819.0" y="88.0" type="line"/>
      <point x="819.0" y="1430.0" type="line"/>
      <point x="759.0" y="1430.0" type="line"/>
      <point x="5.0" y="1080.0" type="line"/>
      <point x="22.0" y="1028.0" type="line"/>
      <point x="668.0" y="1146.0" type="line"/>
      <point x="321.0" y="1209.0" type="line"/>
    </contour>
  </outline>
</glyph>
<glyph name="seven.lf" format="2">
  <advance width="1213"/>
  <outline>
    <contour>
      <point x="90.0" y="1068.0" type="line"/>
      <point x="1094.0" y="1068.0" type="line"/>
      <point x="1177.0" y="1304.0" type="line"/>
      <point x="313.0" y="0.0" type="line"/>
      <point x="725.0" y="0.0" type="line"/>
      <point x="1225.0" y="1389.0" type="line"/>
      <point x="1225.0" y="1430.0" type="line"/>
      <point x="355.0" y="1430.0" type="line"/>
      <point x="180.0" y="1539.0" type="line"/>
      <point x="157.0" y="1539.0" type="line"/>
      <point x="23.0" y="759.0" type="line"/>
      <point x="68.0" y="759.0" type="line"/>
      <point x="479.0" y="1239.0" type="line"/>
    </contour>
  </outline>
</glyph>
<glyph name="three.lf" format="2">
  <advance width="1245"/>
  <outline>
    <contour>
      <point x="361.0" y="656.0" type="line"/>
      <point x="399.0" y="666.0" type="line" smooth="yes"/>
      <point x="609.0" y="726.0"/>
      <point x="716.0" y="665.0"/>
      <point x="716.0" y="444.0" type="curve" smooth="yes"/>
      <point x="716.0" y="172.0"/>
      <point x="622.0" y="50.0"/>
      <point x="494.0" y="50.0" type="curve" smooth="yes"/>
      <point x="381.0" y="50.0"/>
      <point x="202.0" y="305.0"/>
      <point x="154.0" y="305.0" type="curve" smooth="yes"/>
      <point x="83.0" y="305.0"/>
      <point x="30.0" y="249.0"/>
      <point x="30.0" y="172.0" type="curve" smooth="yes"/>
      <point x="30.0" y="50.0"/>
      <point x="143.0" y="-30.0"/>
      <point x="420.0" y="-30.0" type="curve" smooth="yes"/>
      <point x="874.0" y="-30.0"/>
      <point x="1185.0" y="182.0"/>
      <point x="1185.0" y="502.0" type="curve" smooth="yes"/>
      <point x="1185.0" y="736.0"/>
      <point x="1014.0" y="876.0"/>
      <point x="664.0" y="825.0" type="curve"/>
      <point x="655.0" y="816.0" type="line"/>
      <point x="911.0" y="859.0"/>
      <point x="1037.0" y="1006.0"/>
      <point x="1037.0" y="1165.0" type="curve" smooth="yes"/>
      <point x="1037.0" y="1338.0"/>
      <point x="914.0" y="1460.0"/>
      <point x="653.0" y="1460.0" type="curve" smooth="yes"/>
      <point x="358.0" y="1460.0"/>
      <point x="170.0" y="1285.0"/>
      <point x="102.0" y="981.0" type="curve"/>
      <point x="149.0" y="970.0" type="line"/>
      <point x="186.0" y="1091.0"/>
      <point x="282.0" y="1190.0"/>
      <point x="449.0" y="1190.0" type="curve" smooth="yes"/>
      <point x="569.0" y="1190.0"/>
      <point x="656.0" y="1130.0"/>
      <point x="656.0" y="1007.0" type="curve" smooth="yes"/>
      <point x="656.0" y="881.0"/>
      <point x="587.0" y="793.0"/>
      <point x="339.0" y="724.0" type="curve"/>
    </contour>
  </outline>
</glyph>
<glyph name="uni0302_tildecomb" format="2">
  <anchor x="0" y="1024.0" name="_top"/>
  <outline>
    <contour>
      <point x="90.0" y="1258.0" type="line"/>
      <point x="-92.0" y="1258.0" type="line"/>
      <point x="248.0" y="1097.0" type="line"/>
      <point x="321.0" y="1097.0" type="line"/>
      <point x="104.0" y="1342.0" type="line"/>
      <point x="-104.0" y="1342.0" type="line"/>
      <point x="-321.0" y="1097.0" type="line"/>
      <point x="-248.0" y="1097.0" type="line"/>
    </contour>
    <contour>
      <point x="-254.0" y="1390.0" type="line"/>
      <point x="-221.0" y="1436.0"/>
      <point x="-185.0" y="1462.0"/>
      <point x="-131.0" y="1462.0" type="curve" smooth="yes"/>
      <point x="-61.0" y="1462.0"/>
      <point x="17.0" y="1383.0"/>
      <point x="107.0" y="1383.0" type="curve" smooth="yes"/>
      <point x="185.0" y="1383.0"/>
      <point x="245.0" y="1430.0"/>
      <point x="309.0" y="1598.0" type="curve"/>
      <point x="254.0" y="1598.0" type="line"/>
      <point x="221.0" y="1552.0"/>
      <point x="185.0" y="1526.0"/>
      <point x="131.0" y="1526.0" type="curve" smooth="yes"/>
      <point x="61.0" y="1526.0"/>
      <point x="-17.0" y="1605.0"/>
      <point x="-107.0" y="1605.0" type="curve" smooth="yes"/>
      <point x="-185.0" y="1605.0"/>
      <point x="-245.0" y="1558.0"/>
      <point x="-309.0" y="1390.0" type="curve"/>
    </contour>
  </outline>
</glyph>
<glyph name="uni0306_hookabovecomb" format="2">
  <anchor x="0" y="1024.0" name="_top"/>
  <outline>
    <contour>
      <point x="-48.0" y="1313.0" type="line"/>
      <point x="167.0" y="1309.0"/>
      <point x="218.0" y="1384.0"/>
      <point x="218.0" y="1473.0" type="curve" smooth="yes"/>
      <point x="218.0" y="1552.0"/>
      <point x="163.0" y="1632.0"/>
      <point x="-108.0" y="1650.0" type="curve"/>
      <point x="-130.0" y="1486.0" type="line"/>
      <point x="43.0" y="1477.0"/>
      <point x="79.0" y="1465.0"/>
      <point x="79.0" y="1421.0" type="curve" smooth="yes"/>
      <point x="79.0" y="1386.0"/>
      <point x="54.0" y="1368.0"/>
      <point x="-48.0" y="1367.0" type="curve"/>
    </contour>
    <contour>
      <point x="0.0" y="1244.0" type="curve" smooth="yes"/>
      <point x="-141.0" y="1244.0"/>
      <point x="-206.0" y="1274.0"/>
      <point x="-240.0" y="1346.0" type="curve"/>
      <point x="-294.0" y="1346.0" type="line"/>
      <point x="-227.0" y="1142.0"/>
      <point x="-157.0" y="1097.0"/>
      <point x="0.0" y="1097.0" type="curve" smooth="yes"/>
      <point x="157.0" y="1097.0"/>
      <point x="227.0" y="1142.0"/>
      <point x="294.0" y="1346.0" type="curve"/>
      <point x="240.0" y="1346.0" type="line"/>
      <point x="206.0" y="1276.0"/>
      <point x="141.0" y="1244.0"/>
    </contour>
  </outline>
</glyph>
<glyph name="uni030A.case" format="2">
  <anchor x="0" y="1430.0" name="_UCtop"/>
  <anchor x="0" y="1870.0" name="UCtop"/>
  <outline>
    <contour>
      <point x="0.0" y="1897.0" type="curve" smooth="yes"/>
      <point x="-112.0" y="1897.0"/>
      <point x="-195.0" y="1817.0"/>
      <point x="-195.0" y="1707.0" type="curve" smooth="yes"/>
      <point x="-195.0" y="1597.0"/>
      <point x="-112.0" y="1517.0"/>
      <point x="0.0" y="1517.0" type="curve" smooth="yes"/>
      <point x="112.0" y="1517.0"/>
      <point x="195.0" y="1597.0"/>
      <point x="195.0" y="1707.0" type="curve" smooth="yes"/>
      <point x="195.0" y="1817.0"/>
      <point x="112.0" y="1897.0"/>
    </contour>
    <contour>
      <point x="0.0" y="1574.0" type="curve" smooth="yes"/>
      <point x="-77.0" y="1574.0"/>
      <point x="-133.0" y="1630.0"/>
      <point x="-133.0" y="1707.0" type="curve" smooth="yes"/>
      <point x="-133.0" y="1786.0"/>
      <point x="-77.0" y="1844.0"/>
      <point x="0.0" y="1844.0" type="curve" smooth="yes"/>
      <point x="77.0" y="1844.0"/>
      <point x="133.0" y="1786.0"/>
      <point x="133.0" y="1707.0" type="curve" smooth="yes"/>
      <point x="133.0" y="1630.0"/>
      <point x="77.0" y="1574.0"/>
    </contour>
  </outline>
</glyph>
<glyph name="uni0312.case" format="2">
  <anchor x="0" y="1430.0" name="_UCtop"/>
  <anchor x="0" y="1870.0" name="UCtop"/>
  <outline>
    <contour>
      <point x="147.0" y="1679.0" type="curve" smooth="yes"/>
      <point x="147.0" y="1702.0"/>
      <point x="18.0" y="1713.0"/>
      <point x="18.0" y="1774.0" type="curve" smooth="yes"/>
      <point x="18.0" y="1811.0"/>
      <point x="48.0" y="1833.0"/>
      <point x="159.0" y="1840.0" type="curve"/>
      <point x="159.0" y="1885.0" type="line"/>
      <point x="-51.0" y="1874.0"/>
      <point x="-131.0" y="1780.0"/>
      <point x="-131.0" y="1674.0" type="curve" smooth="yes"/>
      <point x="-131.0" y="1584.0"/>
      <point x="-78.0" y="1533.0"/>
      <point x="5.0" y="1533.0" type="curve" smooth="yes"/>
      <point x="91.0" y="1533.0"/>
      <point x="147.0" y="1594.0"/>
    </contour>
  </outline>
</glyph>
<glyph name="uni20A6.lf" format="2">
  <advance width="1386"/>
  <outline>
    <contour>
      <point x="1307.0" y="601.0" type="line"/>
      <point x="78.0" y="601.0" type="line"/>
      <point x="78.0" y="524.0" type="line"/>
      <point x="1307.0" y="524.0" type="line"/>
    </contour>
    <contour>
      <point x="1307.0" y="919.0" type="line"/>
      <point x="78.0" y="919.0" type="line"/>
      <point x="78.0" y="841.0" type="line"/>
      <point x="1307.0" y="841.0" type="line"/>
    </contour>
    <contour>
      <point x="1147.0" y="479.0" type="line"/>
      <point x="710.0" y="1430.0" type="line"/>
      <point x="98.0" y="1430.0" type="line"/>
      <point x="98.0" y="1398.0" type="line"/>
      <point x="249.0" y="1340.0" type="line"/>
      <point x="249.0" y="66.0" type="line"/>
      <point x="116.0" y="32.0" type="line"/>
      <point x="116.0" y="0.0" type="line"/>
      <point x="464.0" y="0.0" type="line"/>
      <point x="464.0" y="32.0" type="line"/>
      <point x="324.0" y="66.0" type="line"/>
      <point x="324.0" y="1369.0" type="line"/>
      <point x="304.0" y="1347.0" type="line"/>
      <point x="927.0" y="0.0" type="line"/>
      <point x="1173.0" y="0.0" type="line"/>
      <point x="1173.0" y="1364.0" type="line"/>
      <point x="1306.0" y="1398.0" type="line"/>
      <point x="1306.0" y="1430.0" type="line"/>
      <point x="958.0" y="1430.0" type="line"/>
      <point x="958.0" y="1398.0" type="line"/>
      <point x="1098.0" y="1364.0" type="line"/>
      <point x="1098.0" y="479.0" type="line"/>
    </contour>
  </outline>
</glyph>
<glyph name="uni20B2.lf" format="2">
  <advance width="1415"/>
  <outline>
    <contour>
      <point x="827.0" y="-208.0" type="line"/>
      <point x="900.0" y="-208.0" type="line"/>
      <point x="900.0" y="1638.0" type="line"/>
      <point x="827.0" y="1638.0" type="line"/>
    </contour>
    <contour>
      <point x="811.0" y="1373.0" type="curve" smooth="yes"/>
      <point x="954.0" y="1373.0"/>
      <point x="1095.0" y="1130.0"/>
      <point x="1136.0" y="1130.0" type="curve" smooth="yes"/>
      <point x="1223.0" y="1130.0"/>
      <point x="1277.0" y="1181.0"/>
      <point x="1277.0" y="1263.0" type="curve" smooth="yes"/>
      <point x="1277.0" y="1372.0"/>
      <point x="1161.0" y="1460.0"/>
      <point x="893.0" y="1460.0" type="curve" smooth="yes"/>
      <point x="362.0" y="1460.0"/>
      <point x="98.0" y="1104.0"/>
      <point x="98.0" y="678.0" type="curve" smooth="yes"/>
      <point x="98.0" y="227.0"/>
      <point x="343.0" y="-30.0"/>
      <point x="821.0" y="-30.0" type="curve" smooth="yes"/>
      <point x="967.0" y="-30.0"/>
      <point x="1140.0" y="11.0"/>
      <point x="1325.0" y="98.0" type="curve"/>
      <point x="1325.0" y="117.0" type="line"/>
      <point x="1285.0" y="181.0" type="line"/>
      <point x="1285.0" y="602.0" type="line"/>
      <point x="1335.0" y="653.0" type="line"/>
      <point x="1335.0" y="680.0" type="line"/>
      <point x="727.0" y="680.0" type="line"/>
      <point x="727.0" y="643.0" type="line"/>
      <point x="827.0" y="592.0" type="line"/>
      <point x="827.0" y="-2.0" type="line"/>
      <point x="974.0" y="95.0" type="line"/>
      <point x="924.0" y="69.0"/>
      <point x="871.0" y="48.0"/>
      <point x="817.0" y="48.0" type="curve" smooth="yes"/>
      <point x="704.0" y="48.0"/>
      <point x="569.0" y="180.0"/>
      <point x="569.0" y="807.0" type="curve" smooth="yes"/>
      <point x="569.0" y="1231.0"/>
      <point x="644.0" y="1373.0"/>
    </contour>
  </outline>
</glyph>
<glyph name="uni20B9.lf" format="2">
  <advance width="1423"/>
  <outline>
    <contour>
      <point x="1362.0" y="1093.0" type="line"/>
      <point x="84.0" y="1093.0" type="line"/>
      <point x="84.0" y="1016.0" type="line"/>
      <point x="1362.0" y="1016.0" type="line"/>
    </contour>
    <contour>
      <point x="321.0" y="674.0" type="line" smooth="yes"/>
      <point x="395.0" y="674.0"/>
      <point x="445.0" y="665.0"/>
      <point x="481.0" y="545.0" type="curve" smooth="yes"/>
      <point x="587.0" y="190.0" type="line" smooth="yes"/>
      <point x="642.0" y="7.0"/>
      <point x="705.0" y="-43.0"/>
      <point x="1289.0" y="0.0" type="curve"/>
      <point x="1289.0" y="69.0" type="line"/>
      <point x="1172.0" y="68.0"/>
      <point x="1140.0" y="95.0"/>
      <point x="1102.0" y="211.0" type="curve" smooth="yes"/>
      <point x="1027.0" y="442.0" type="line" smooth="yes"/>
      <point x="972.0" y="611.0"/>
      <point x="862.0" y="728.0"/>
      <point x="626.0" y="741.0" type="curve"/>
      <point x="626.0" y="737.0" type="line"/>
      <point x="944.0" y="744.0"/>
      <point x="1110.0" y="897.0"/>
      <point x="1110.0" y="1076.0" type="curve" smooth="yes"/>
      <point x="1110.0" y="1212.0"/>
      <point x="1025.0" y="1360.0"/>
      <point x="641.0" y="1360.0" type="curve" smooth="yes"/>
      <point x="512.0" y="1360.0" type="line"/>
      <point x="512.0" y="1430.0" type="line"/>
      <point x="84.0" y="1430.0" type="line"/>
      <point x="84.0" y="1340.0" type="line"/>
      <point x="406.0" y="1340.0" type="line" smooth="yes"/>
      <point x="549.0" y="1340.0"/>
      <point x="623.0" y="1255.0"/>
      <point x="623.0" y="1054.0" type="curve" smooth="yes"/>
      <point x="623.0" y="864.0"/>
      <point x="543.0" y="764.0"/>
      <point x="374.0" y="764.0" type="curve" smooth="yes"/>
      <point x="84.0" y="764.0" type="line"/>
      <point x="84.0" y="674.0" type="line"/>
    </contour>
    <contour>
      <point x="1362.0" y="1430.0" type="line"/>
      <point x="84.0" y="1430.0" type="line"/>
      <point x="84.0" y="1352.0" type="line"/>
      <point x="1362.0" y="1352.0" type="line"/>
    </contour>
  </outline>
</glyph>
<glyph name="yen.lf" format="2">
  <advance width="1661"/>
  <outline>
    <contour>
      <point x="1432.0" y="601.0" type="line"/>
      <point x="314.0" y="601.0" type="line"/>
      <point x="314.0" y="524.0" type="line"/>
      <point x="1432.0" y="524.0" type="line"/>
    </contour>
    <contour>
      <point x="1432.0" y="919.0" type="line"/>
      <point x="314.0" y="919.0" type="line"/>
      <point x="314.0" y="841.0" type="line"/>
      <point x="1432.0" y="841.0" type="line"/>
    </contour>
    <contour>
      <point x="1122.0" y="904.0" type="line"/>
      <point x="1460.0" y="1354.0" type="line"/>
      <point x="1610.0" y="1391.0" type="line"/>
      <point x="1610.0" y="1430.0" type="line"/>
      <point x="1221.0" y="1430.0" type="line"/>
      <point x="1221.0" y="1391.0" type="line"/>
      <point x="1375.0" y="1357.0" type="line"/>
      <point x="1060.0" y="944.0" type="line"/>
      <point x="1110.0" y="951.0" type="line"/>
      <point x="778.0" y="1352.0" type="line"/>
      <point x="965.0" y="1391.0" type="line"/>
      <point x="965.0" y="1430.0" type="line"/>
      <point x="36.0" y="1430.0" type="line"/>
      <point x="36.0" y="1391.0" type="line"/>
      <point x="178.0" y="1350.0" type="line"/>
      <point x="624.0" y="899.0" type="line"/>
      <point x="624.0" y="88.0" type="line"/>
      <point x="418.0" y="37.0" type="line"/>
      <point x="418.0" y="0.0" type="line"/>
      <point x="1328.0" y="0.0" type="line"/>
      <point x="1328.0" y="37.0" type="line"/>
      <point x="1122.0" y="88.0" type="line"/>
    </contour>
  </outline>
</glyph>
